{"glyphs":{"0":{"ha":806,"x_min":69,"x_max":740,"o":"m 572 849 q 685 717 646 799 q 735 550 724 636 q 735 545 735 547 q 736 540 736 543 q 738 513 738 526 q 739 485 739 499 q 740 456 740 469 q 740 428 740 442 q 740 406 740 417 q 739 385 740 396 q 734 321 738 353 q 722 258 731 289 q 610 58 692 136 q 413 -21 528 -21 q 377 -19 396 -21 q 340 -12 358 -17 q 323 -8 332 -10 q 304 -3 314 -6 q 134 142 188 33 q 71 375 81 251 q 70 403 71 389 q 69 432 69 418 q 69 447 69 439 q 69 461 69 454 q 78 542 72 503 q 90 614 83 582 q 164 775 113 700 q 304 878 215 850 q 354 890 328 886 q 407 893 381 893 q 426 892 417 893 q 447 892 436 892 q 513 877 481 888 q 572 849 544 867 l 572 849 m 293 436 q 292 435 293 436 q 292 432 292 433 q 292 432 292 432 q 292 431 292 432 q 290 430 290 431 q 290 428 290 429 q 292 374 290 407 q 297 307 293 342 q 328 203 306 250 q 400 157 351 157 q 403 157 401 157 q 407 158 406 157 q 409 158 408 158 q 410 158 410 158 q 415 159 413 158 q 418 160 417 160 q 485 213 465 167 q 513 311 506 258 q 517 368 517 340 q 518 417 518 396 l 518 457 q 517 505 518 478 q 513 561 517 532 q 486 660 507 614 q 418 714 465 706 l 400 714 q 327 667 350 714 q 297 564 304 621 q 292 504 293 533 q 290 453 290 475 q 291 449 290 451 q 292 444 292 447 q 292 444 292 444 q 292 442 292 443 q 293 439 293 440 q 293 436 293 438 l 293 436 z "},"1":{"ha":569,"x_min":79,"x_max":465,"o":"m 465 3 l 265 3 l 265 675 l 79 675 l 174 863 l 465 863 l 465 3 l 465 3 z "},"2":{"ha":846,"x_min":76,"x_max":761,"o":"m 751 0 l 76 0 l 472 471 q 474 473 474 472 q 476 475 475 474 q 522 540 501 503 q 543 614 543 576 l 543 632 q 506 695 536 672 q 436 718 476 718 q 343 672 364 718 q 319 567 322 626 l 108 567 q 131 708 110 640 q 211 824 153 775 q 301 874 250 856 q 406 894 353 892 q 418 896 411 896 q 431 896 425 896 q 442 896 436 896 q 456 894 449 896 q 658 822 565 888 q 761 635 751 756 l 761 613 q 724 480 761 542 q 639 365 688 418 l 482 189 l 751 189 l 751 0 l 751 0 z "},"3":{"ha":819,"x_min":76,"x_max":740,"o":"m 76 294 l 300 294 q 300 285 300 290 q 300 276 300 281 q 312 217 301 246 q 353 174 322 189 q 362 170 357 172 q 371 167 367 168 q 390 162 381 164 q 407 160 400 160 q 490 197 456 160 q 525 279 525 233 q 523 299 525 289 q 518 319 521 308 q 509 339 514 329 q 497 358 504 349 q 463 381 483 375 q 419 389 442 388 q 409 389 414 389 q 399 389 404 389 l 365 389 l 365 533 q 374 533 369 533 q 383 533 379 533 q 449 547 418 535 q 496 594 481 558 q 499 609 499 601 q 501 624 500 617 q 501 629 501 626 q 501 635 501 632 q 501 646 501 640 q 500 657 500 651 q 492 680 497 668 q 479 700 488 692 q 457 716 469 710 q 432 726 444 722 q 417 728 424 728 q 403 729 410 729 q 340 705 368 729 q 308 632 311 681 l 94 632 q 193 828 96 760 q 406 899 290 896 q 410 899 408 899 q 414 899 413 899 q 433 898 424 899 q 453 897 443 897 q 535 881 494 893 q 608 849 575 869 q 680 770 653 819 q 707 667 707 721 q 705 640 707 653 q 700 613 703 626 q 651 531 686 561 q 567 483 615 501 q 671 438 628 469 q 732 344 714 407 q 736 325 735 335 q 739 306 738 315 q 740 285 740 294 q 740 265 740 275 q 740 248 740 257 q 738 229 739 239 q 707 129 732 178 q 639 50 682 81 q 553 5 601 21 q 456 -17 506 -11 q 433 -19 444 -18 q 410 -19 421 -19 q 381 -19 396 -19 q 353 -15 367 -18 q 304 -7 328 -12 q 258 4 281 -1 q 121 119 165 40 q 76 294 76 199 l 76 294 z "},"4":{"ha":833,"x_min":58,"x_max":761,"o":"m 461 0 l 461 199 l 58 199 l 58 374 l 388 881 l 661 881 l 661 374 l 761 374 l 761 199 l 661 199 l 661 0 l 461 0 l 461 0 m 246 374 l 461 374 l 461 631 q 462 681 461 656 q 468 732 463 706 q 445 686 457 708 q 421 643 433 664 q 414 632 417 638 q 407 621 411 626 l 246 374 l 246 374 z "},"5":{"ha":776,"x_min":69,"x_max":703,"o":"m 657 875 l 657 697 l 322 697 l 304 583 q 330 588 317 586 q 357 592 343 590 q 384 594 371 593 q 410 594 397 594 q 438 593 424 594 q 468 590 453 592 q 503 583 485 588 q 536 574 521 579 q 658 469 617 543 q 703 311 699 394 q 703 302 703 307 q 703 293 703 297 q 703 279 703 286 q 703 265 703 272 q 702 250 703 257 q 700 236 701 243 q 570 40 678 100 q 338 -21 463 -21 q 316 -20 326 -21 q 294 -19 306 -19 q 176 3 235 -14 q 69 47 117 19 l 88 261 l 104 258 q 194 181 140 208 q 308 153 249 153 q 427 187 378 153 q 482 294 476 221 l 482 308 q 428 423 482 382 q 306 464 375 464 q 279 463 293 464 q 251 458 265 461 q 189 435 219 450 q 133 394 158 419 l 104 413 l 175 875 l 657 875 l 657 875 z "},"6":{"ha":806,"x_min":61,"x_max":733,"o":"m 342 875 l 588 875 l 381 569 q 427 577 404 575 q 471 579 450 579 q 664 492 596 579 q 733 299 732 404 q 733 297 733 297 q 733 294 733 296 q 733 292 733 293 q 733 289 733 290 q 674 107 732 192 q 497 -6 615 22 q 468 -10 483 -8 q 438 -14 453 -12 q 413 -16 425 -15 q 389 -17 400 -17 q 194 36 283 -17 q 74 200 106 89 q 72 208 74 204 q 71 215 71 213 q 64 256 67 236 q 61 294 61 275 q 106 486 61 393 q 203 661 150 579 q 212 675 207 668 q 221 689 217 682 l 342 875 l 342 875 m 514 229 q 521 248 518 238 q 525 268 524 258 q 526 281 525 275 q 526 293 526 288 q 526 305 526 299 q 525 317 525 311 q 503 374 519 347 q 460 414 488 401 q 446 419 453 417 q 432 424 439 422 q 413 426 422 425 q 394 428 403 428 q 389 428 392 428 q 383 428 386 428 q 312 403 346 425 q 265 344 278 382 q 263 336 264 340 q 261 328 263 332 q 260 324 261 326 q 260 319 260 322 q 256 303 257 311 q 254 288 254 294 q 292 198 254 232 q 375 157 331 164 q 385 156 381 157 q 396 156 390 156 q 402 156 399 156 q 408 156 406 156 q 470 178 440 160 q 514 229 500 196 l 514 229 z "},"7":{"ha":822,"x_min":69,"x_max":744,"o":"m 110 0 l 442 678 l 69 678 l 69 875 l 744 875 l 744 835 l 360 0 l 110 0 l 110 0 z "},"8":{"ha":819,"x_min":65,"x_max":743,"o":"m 561 472 q 693 400 646 456 q 743 257 740 344 l 743 240 q 638 40 743 99 q 406 -19 533 -19 q 170 40 275 -19 q 65 243 65 99 q 66 247 65 244 q 67 250 67 249 q 67 254 67 253 q 68 257 68 256 q 119 400 71 344 q 250 472 167 456 q 143 538 185 490 q 101 653 101 585 l 104 660 q 194 833 106 774 q 388 896 282 892 q 395 896 392 896 q 403 896 399 896 q 406 896 404 896 q 411 896 408 896 q 613 834 521 893 q 707 660 704 775 l 707 653 q 667 538 707 585 q 561 472 628 490 l 561 472 m 400 363 q 314 337 353 363 q 275 258 275 311 q 314 182 275 208 q 400 156 353 156 q 406 156 403 156 q 411 156 408 156 q 490 185 454 158 q 526 258 526 211 q 490 335 526 308 q 410 363 453 361 q 408 363 408 363 q 406 363 407 363 l 400 363 l 400 363 m 286 631 q 319 556 286 581 q 392 529 353 531 q 394 529 393 529 q 396 529 394 529 q 399 529 397 529 q 403 529 401 529 q 474 557 442 532 q 507 631 507 582 q 474 702 507 678 q 403 729 442 726 q 399 729 401 729 q 396 729 397 729 q 320 704 354 729 q 286 631 286 679 l 286 631 z "},"9":{"ha":806,"x_min":57,"x_max":729,"o":"m 410 308 q 401 306 406 307 q 393 306 397 306 q 354 297 374 300 q 318 294 335 294 q 124 383 192 294 q 57 579 57 471 q 57 590 57 585 q 57 600 57 594 q 122 775 64 693 q 293 885 179 857 q 343 893 318 890 q 394 896 368 896 q 593 842 501 896 q 715 675 685 789 q 722 648 719 663 q 726 619 725 633 q 728 597 728 608 q 729 576 729 586 q 683 383 729 476 q 583 204 638 289 q 578 196 581 200 q 572 188 575 192 l 450 0 l 203 0 l 410 308 l 410 308 m 333 461 q 349 456 340 458 q 368 451 358 453 q 382 449 375 450 q 396 449 389 449 q 403 449 400 449 q 411 450 407 449 q 481 474 447 453 q 525 533 514 496 q 531 563 528 549 q 533 590 533 578 q 494 681 533 646 q 408 719 456 715 q 402 721 406 721 q 394 721 399 721 q 327 703 360 721 q 276 649 294 685 q 274 645 275 647 q 274 640 274 643 q 269 628 271 635 q 265 614 267 621 q 263 598 264 606 q 261 583 261 590 q 261 580 261 582 q 261 576 261 578 q 281 508 263 540 q 333 461 300 476 l 333 461 z "}," ":{"ha":521,"x_min":0,"x_max":0,"o":""},"!":{"ha":446,"x_min":88,"x_max":342,"o":"m 88 92 q 126 181 88 140 q 213 222 165 221 q 215 222 214 222 q 217 222 215 222 q 303 181 265 222 q 342 92 342 140 q 304 8 342 36 q 222 -24 267 -21 q 217 -24 219 -24 q 214 -24 215 -24 q 212 -24 213 -24 q 210 -24 211 -24 q 126 6 164 -22 q 88 92 88 35 l 88 92 m 104 925 l 326 925 l 326 294 l 104 294 l 104 925 l 104 925 z "},"\"":{"ha":543,"x_min":99,"x_max":439,"o":"m 99 869 l 232 869 l 232 531 l 99 531 l 99 869 l 99 869 m 304 869 l 439 869 l 439 531 l 304 531 l 304 869 l 304 869 z "},"#":{"ha":1040,"x_min":68,"x_max":990,"o":"m 465 888 l 617 888 l 533 649 l 675 649 l 761 888 l 911 888 l 826 649 l 990 649 l 939 508 l 776 508 l 728 371 l 896 371 l 844 232 l 678 232 l 594 -4 l 443 -4 l 526 232 l 385 232 l 300 -4 l 149 -4 l 232 232 l 68 232 l 119 371 l 282 371 l 331 508 l 160 508 l 211 649 l 381 649 l 465 888 l 465 888 m 579 369 l 628 508 l 479 508 l 431 369 l 579 369 l 579 369 z "},"$":{"ha":779,"x_min":61,"x_max":711,"o":"m 169 288 q 284 194 231 222 q 378 167 338 167 q 456 194 426 167 q 490 257 486 222 q 490 260 490 258 q 490 264 490 263 q 490 269 490 267 q 490 272 490 271 q 476 311 488 293 q 442 342 464 329 q 389 363 417 354 q 333 378 361 371 q 330 378 332 378 q 325 381 328 379 q 291 390 308 385 q 257 400 274 394 q 164 463 206 424 q 110 561 122 501 q 109 572 110 567 q 107 585 108 578 q 106 590 107 588 q 106 597 106 593 q 105 609 106 603 q 104 621 104 615 q 105 644 104 632 q 108 667 106 656 q 125 726 114 697 q 151 779 136 756 q 258 866 196 842 q 392 900 319 890 l 392 986 l 468 986 l 468 903 q 533 889 504 897 q 592 869 563 881 q 631 851 611 861 q 674 826 651 840 l 596 656 q 506 707 549 692 q 431 722 463 722 q 356 699 383 722 q 329 646 329 675 q 329 642 329 644 q 329 639 329 640 q 345 606 332 621 q 383 581 358 590 q 431 562 406 569 q 481 549 456 554 q 486 547 483 547 q 492 546 489 546 q 537 532 514 539 q 581 515 560 525 q 676 430 644 489 q 711 306 707 371 q 711 297 711 301 q 711 288 711 292 q 710 267 711 278 q 708 247 710 257 q 688 168 703 207 q 650 99 674 129 q 556 19 607 42 q 435 -12 504 -3 l 435 -160 l 356 -160 l 356 -15 q 242 2 289 -10 q 153 40 196 14 q 108 70 131 53 q 61 110 86 88 l 169 288 l 169 288 z "},"%":{"ha":1208,"x_min":68,"x_max":1136,"o":"m 276 -21 l 808 893 l 921 893 l 388 -21 l 276 -21 l 276 -21 m 1121 119 q 1035 14 1094 47 q 907 -19 976 -19 q 898 -19 903 -19 q 888 -18 893 -19 q 885 -18 886 -18 q 885 -18 885 -18 q 872 -17 878 -18 q 863 -17 867 -17 q 730 65 775 -4 q 682 213 685 133 q 682 217 682 215 q 682 222 682 219 q 683 242 682 232 q 686 263 685 251 q 688 271 686 267 q 689 279 689 275 q 691 290 690 285 q 693 301 692 296 q 775 424 713 379 q 911 468 838 468 q 928 467 919 468 q 946 465 938 467 q 982 458 964 463 q 1015 446 1000 453 q 1101 360 1071 418 q 1136 240 1132 303 q 1136 230 1136 235 q 1136 221 1136 225 q 1135 201 1136 211 q 1133 181 1135 190 q 1129 149 1132 164 q 1121 119 1126 133 l 1121 119 m 986 160 q 987 173 986 165 q 988 189 988 181 q 988 198 988 193 q 989 207 989 203 q 989 215 989 211 q 989 222 989 218 q 989 239 989 231 q 988 257 989 247 q 980 309 986 283 q 961 349 974 335 q 946 363 954 357 q 928 371 938 368 q 919 373 924 372 q 911 374 915 374 q 908 374 910 374 q 903 374 906 374 q 860 347 881 369 q 838 297 840 325 q 837 290 838 294 q 835 282 836 286 q 833 258 833 271 q 831 233 832 246 q 831 226 831 229 q 831 218 831 222 q 831 203 831 211 q 832 188 832 194 q 843 130 835 157 q 867 88 851 103 q 872 84 869 86 q 878 81 875 82 q 893 72 885 75 q 907 69 901 69 q 953 92 932 69 q 982 139 974 114 q 985 149 983 144 q 986 160 986 154 l 986 160 m 400 874 q 490 789 458 846 q 525 669 521 732 q 525 659 525 664 q 525 650 525 654 q 524 628 525 639 q 521 606 524 617 q 515 576 519 590 q 507 547 511 561 q 429 445 482 482 q 319 404 376 408 q 309 403 314 403 q 300 403 304 403 q 298 403 299 403 q 296 403 297 403 q 140 467 211 404 q 68 644 68 531 q 69 674 68 658 q 75 707 71 690 q 76 718 75 713 q 79 729 78 724 q 162 851 99 807 q 297 896 225 896 q 317 895 307 896 q 339 893 328 894 q 371 885 356 890 q 400 874 386 881 l 400 874 m 324 507 q 354 534 344 515 q 368 574 364 553 q 370 580 369 576 q 371 588 371 583 q 372 603 371 594 q 372 619 372 611 q 373 633 372 626 q 374 646 374 639 q 374 651 374 649 q 374 657 374 654 q 374 673 374 665 q 372 689 374 681 q 365 739 371 715 q 347 776 360 763 q 335 788 342 783 q 319 796 328 793 q 308 800 314 799 q 297 801 303 801 q 295 801 296 801 q 293 801 294 801 q 249 776 269 799 q 225 725 228 754 q 224 717 225 721 q 222 708 224 713 q 219 676 221 693 q 218 642 218 660 q 219 626 218 633 q 219 610 219 618 q 230 554 222 581 q 253 515 238 528 q 255 513 254 514 q 257 513 256 513 q 269 505 263 508 q 282 499 276 501 q 288 498 285 499 q 293 497 290 497 q 300 498 296 497 q 308 500 304 499 q 317 503 313 501 q 324 507 321 506 l 324 507 z "},"&":{"ha":1029,"x_min":57,"x_max":961,"o":"m 961 0 l 693 0 l 614 92 q 507 21 569 50 q 379 -17 444 -8 q 352 -20 365 -19 q 326 -21 339 -21 q 224 -4 275 -21 q 133 50 174 13 q 78 133 99 86 q 57 228 57 179 q 58 246 57 236 q 60 265 58 256 q 65 290 63 278 q 72 311 68 301 q 142 408 94 368 q 240 478 189 447 q 252 484 246 481 q 264 490 258 488 q 207 576 232 531 q 182 674 182 622 q 183 686 182 679 q 186 700 185 693 q 186 701 186 701 q 186 703 186 701 q 188 713 186 707 q 189 722 189 718 q 274 837 210 799 q 413 878 339 875 q 418 878 415 878 q 424 878 421 878 q 433 878 428 878 q 443 878 438 878 q 610 816 533 872 q 686 661 686 760 l 686 635 q 633 522 676 569 q 536 439 589 475 l 639 331 q 704 390 674 360 q 763 454 735 421 l 889 324 q 831 260 861 290 q 769 199 801 229 l 961 0 l 961 0 m 306 169 q 317 165 311 167 q 331 160 324 163 q 351 155 340 157 q 369 153 361 153 q 439 171 406 153 q 496 211 472 189 l 351 367 q 340 357 346 363 q 331 346 335 351 q 297 308 313 329 q 274 265 282 286 q 269 249 271 257 q 268 235 268 242 q 278 201 268 217 q 306 169 288 185 l 306 169 m 432 544 q 445 555 439 550 q 458 567 451 560 q 501 608 482 585 q 522 660 519 631 l 522 668 q 501 715 522 697 q 456 736 481 732 q 451 736 454 736 q 446 736 449 736 q 440 736 443 736 q 435 735 438 736 q 389 716 410 732 q 365 671 368 700 q 365 668 365 669 q 364 667 364 667 q 363 664 364 665 q 363 661 363 663 q 376 615 363 638 q 407 574 390 593 q 420 558 414 565 q 432 544 426 551 l 432 544 z "},"'":{"ha":515,"x_min":76,"x_max":431,"o":"m 204 885 l 431 885 l 243 508 l 76 508 l 204 885 l 204 885 z "},"(":{"ha":515,"x_min":94,"x_max":449,"o":"m 443 -189 l 311 -282 q 257 -207 282 -243 q 211 -135 232 -171 q 123 72 151 -33 q 94 313 94 178 q 129 577 94 461 q 235 803 164 693 q 271 856 251 829 q 311 911 290 883 l 449 822 q 323 602 367 721 q 274 363 279 483 q 272 341 272 351 q 272 319 272 331 q 273 290 272 304 q 275 260 274 275 q 326 26 283 142 q 443 -187 369 -89 l 443 -189 z "},")":{"ha":543,"x_min":79,"x_max":432,"o":"m 83 -189 q 205 44 163 -82 q 250 300 247 169 q 250 309 250 304 q 250 319 250 314 q 250 339 250 329 q 249 357 250 349 q 201 602 243 482 q 79 822 158 722 l 217 911 q 254 860 236 885 q 288 810 272 835 q 396 579 360 697 q 432 313 432 461 q 403 72 432 178 q 315 -135 374 -33 q 269 -207 294 -171 q 217 -281 244 -243 l 83 -189 l 83 -189 z "},"*":{"ha":642,"x_min":108,"x_max":561,"o":"m 374 732 l 497 826 l 558 721 l 414 661 l 561 601 l 497 496 l 374 592 l 396 436 l 272 436 l 293 594 l 171 496 l 108 601 l 257 661 l 108 721 l 171 826 l 294 732 l 272 885 l 396 885 l 374 732 l 374 732 z "},"+":{"ha":889,"x_min":83,"x_max":806,"o":"m 374 739 l 515 739 l 515 439 l 806 439 l 806 300 l 515 300 l 515 0 l 374 0 l 374 300 l 83 300 l 83 439 l 374 439 l 374 739 l 374 739 z "},",":{"ha":489,"x_min":50,"x_max":403,"o":"m 178 200 l 403 200 l 217 -175 l 50 -175 l 178 200 l 178 200 z "},"-":{"ha":501,"x_min":47,"x_max":457,"o":"m 47 207 l 47 403 l 457 403 l 457 207 l 47 207 l 47 207 z "},".":{"ha":403,"x_min":74,"x_max":329,"o":"m 203 -33 q 201 -32 201 -32 q 199 -32 200 -32 q 113 6 151 -31 q 74 90 74 42 q 113 179 74 139 q 199 221 151 219 q 201 221 200 221 q 203 221 201 221 q 205 221 204 221 q 207 221 206 221 q 291 178 253 218 q 329 90 329 139 q 291 6 329 43 q 207 -32 253 -31 q 205 -32 206 -32 q 203 -32 204 -32 l 203 -33 z "},"/":{"ha":696,"x_min":57,"x_max":624,"o":"m 57 -112 l 489 906 l 624 906 l 192 -112 l 57 -112 l 57 -112 z "},":":{"ha":389,"x_min":61,"x_max":315,"o":"m 189 222 q 276 181 238 222 q 315 92 315 140 q 278 8 315 36 q 196 -24 240 -21 q 191 -24 193 -24 q 188 -24 189 -24 q 101 5 140 -24 q 61 92 61 33 q 99 178 61 139 q 181 222 136 218 q 185 222 183 222 q 189 222 188 222 l 189 222 m 61 479 q 61 481 61 481 q 61 483 61 482 q 100 566 63 528 q 181 608 138 604 q 185 608 183 608 q 189 608 188 608 q 274 572 244 608 q 308 492 303 536 q 308 485 308 489 q 308 478 308 482 q 278 392 308 431 q 189 353 249 353 q 181 353 185 353 q 175 354 178 353 q 97 397 132 360 q 61 479 61 433 l 61 479 z "},";":{"ha":489,"x_min":39,"x_max":400,"o":"m 167 200 l 392 200 l 204 -175 l 39 -175 l 167 200 l 167 200 m 400 475 q 361 384 400 415 q 275 353 322 353 q 188 384 228 353 q 149 475 149 415 q 188 565 149 524 q 275 606 228 606 q 362 565 324 606 q 400 475 400 524 l 400 475 z "},"<":{"ha":819,"x_min":44,"x_max":757,"o":"m 757 733 l 757 581 l 240 369 l 757 160 l 757 7 l 44 300 l 44 439 l 757 733 l 757 733 z "},"=":{"ha":793,"x_min":14,"x_max":736,"o":"m 14 167 l 14 304 l 736 304 l 736 167 l 14 167 l 14 167 m 14 574 l 736 574 l 736 435 l 14 435 l 14 574 l 14 574 z "},">":{"ha":819,"x_min":44,"x_max":757,"o":"m 44 733 l 757 439 l 757 300 l 44 7 l 44 160 l 561 369 l 44 581 l 44 733 l 44 733 z "},"?":{"ha":736,"x_min":68,"x_max":657,"o":"m 478 94 q 439 8 478 46 q 351 -31 400 -31 q 262 7 293 -31 q 229 90 231 44 q 229 92 229 92 q 229 94 229 93 q 229 98 229 96 q 229 103 229 100 q 263 185 232 147 q 351 222 294 222 q 436 185 399 222 q 478 103 474 147 q 478 98 478 100 q 478 94 478 96 l 478 94 m 464 300 l 257 300 l 257 549 q 269 549 263 549 q 282 549 275 549 q 294 547 288 547 q 306 547 300 547 q 320 547 313 547 q 335 549 328 547 q 391 559 364 550 q 436 590 418 568 q 449 608 443 599 q 456 626 454 617 q 459 638 458 632 q 460 650 460 644 q 430 722 460 690 q 360 754 400 754 q 354 754 357 754 q 349 754 351 754 q 343 753 346 754 q 338 751 340 753 q 291 722 304 743 q 272 668 278 700 l 68 668 l 68 671 q 156 860 68 793 q 347 932 243 926 q 358 932 353 932 q 367 932 363 932 q 384 931 375 932 q 401 931 393 931 q 481 913 442 926 q 551 878 521 900 q 620 797 594 847 q 654 694 646 747 q 656 674 656 685 q 657 653 657 664 q 610 505 657 572 q 464 431 563 438 l 464 300 l 464 300 z "},"@":{"ha":1290,"x_min":68,"x_max":1207,"o":"m 1207 475 l 1207 464 q 1204 421 1207 443 q 1196 376 1201 399 q 1078 158 1168 257 q 867 58 988 58 q 828 63 849 58 q 788 72 808 67 q 741 105 756 83 q 721 160 726 126 q 642 87 686 111 q 536 63 599 63 q 390 121 439 63 q 340 269 340 179 q 340 272 340 271 q 340 276 340 274 q 340 276 340 276 q 342 276 340 276 q 342 281 342 279 q 342 283 342 283 q 420 503 347 403 q 619 613 493 604 l 639 613 q 717 594 682 613 q 776 540 753 576 l 808 596 l 932 596 l 840 228 q 840 224 840 226 q 839 219 839 222 q 838 216 839 218 q 838 211 838 214 q 847 183 838 194 q 875 171 856 171 q 1013 245 963 174 q 1078 401 1064 317 q 1082 434 1081 418 q 1083 465 1083 450 q 1083 473 1083 469 q 1083 479 1083 476 q 1080 506 1082 493 q 1076 531 1078 518 q 1074 538 1075 535 q 1074 544 1074 542 q 940 720 1040 661 q 726 786 840 779 q 713 788 719 788 q 700 788 707 788 q 450 734 565 788 q 261 561 335 681 q 219 469 236 519 q 194 368 201 419 q 192 340 193 354 q 192 313 192 326 q 192 306 192 310 q 192 299 192 303 q 218 165 194 231 q 290 50 242 100 q 449 -48 358 -17 q 638 -79 540 -79 q 667 -78 653 -79 q 697 -76 682 -78 q 861 -40 781 -68 q 1004 33 942 -11 l 1063 -50 q 888 -137 983 -103 q 692 -182 792 -172 q 656 -185 674 -185 q 621 -186 639 -186 q 605 -186 613 -186 q 589 -185 597 -186 q 390 -144 488 -181 q 214 -35 292 -108 q 104 125 140 32 q 68 315 68 218 q 69 355 68 335 q 74 394 71 375 q 104 518 82 457 q 160 631 126 579 q 384 828 244 761 q 675 900 524 896 q 684 900 679 900 q 693 900 689 900 q 718 900 706 900 q 744 899 731 900 q 769 897 757 897 q 794 893 782 896 q 1082 762 963 871 q 1207 475 1201 653 l 1207 475 m 743 421 q 714 486 740 458 q 650 514 688 514 l 635 514 q 552 464 582 506 q 507 374 522 422 q 499 346 503 360 q 493 318 496 332 q 492 312 493 315 q 492 306 492 308 q 490 287 490 296 q 489 269 489 278 q 515 190 489 217 q 574 163 540 163 q 592 165 582 163 q 610 169 601 167 q 672 214 643 182 q 711 294 700 246 l 743 421 l 743 421 z "},"A":{"ha":1000,"x_min":44,"x_max":957,"o":"m 44 0 l 349 885 l 650 885 l 957 0 l 715 0 l 671 160 l 329 160 l 283 0 l 44 0 l 44 0 m 471 624 l 381 331 l 621 331 l 531 624 q 517 667 524 644 q 507 713 511 690 q 503 728 504 721 q 500 743 501 736 q 497 728 499 736 q 493 713 494 721 q 492 708 492 710 q 490 703 492 706 q 481 663 486 682 q 471 624 476 643 l 471 624 z "},"B":{"ha":849,"x_min":99,"x_max":793,"o":"m 340 885 l 376 885 q 432 884 403 885 q 490 881 461 883 q 667 833 586 872 q 754 682 749 793 l 754 664 q 710 542 754 583 q 592 478 667 500 q 741 408 689 468 q 793 254 793 347 l 793 232 q 697 61 786 107 q 500 6 607 15 q 422 1 461 1 q 349 0 383 0 l 99 0 l 99 885 l 340 885 l 340 885 m 324 182 q 342 182 332 182 q 363 182 351 182 q 374 181 368 181 q 385 181 379 181 q 396 181 390 181 q 407 181 401 181 q 416 181 411 181 q 426 181 421 181 q 517 198 475 182 q 563 261 558 214 l 563 279 q 519 354 563 336 q 424 374 476 372 q 417 374 421 374 q 410 374 414 374 l 324 374 l 324 182 l 324 182 m 526 606 l 526 624 q 489 691 526 675 q 406 710 451 707 q 394 710 400 710 q 383 710 389 710 l 324 710 l 324 531 q 338 531 331 531 q 354 531 346 531 q 362 529 358 529 q 369 529 365 529 q 380 529 375 529 q 389 529 385 529 q 398 529 393 529 q 408 529 403 529 q 485 547 450 532 q 526 606 521 561 l 526 606 z "},"C":{"ha":835,"x_min":69,"x_max":747,"o":"m 747 851 l 747 588 q 651 664 701 635 q 536 693 601 693 l 515 693 q 367 611 419 685 q 311 451 315 538 q 311 445 311 449 q 311 439 311 442 q 351 292 311 361 q 471 200 392 224 q 508 192 490 194 q 540 189 525 189 q 651 220 601 189 q 747 297 701 251 l 747 33 q 709 18 728 25 q 671 6 690 11 q 595 -10 633 -4 q 518 -17 557 -17 q 502 -17 510 -17 q 486 -17 494 -17 q 470 -16 478 -17 q 454 -14 463 -15 q 174 137 279 3 q 69 443 69 271 q 174 748 69 614 q 454 903 279 882 q 468 903 461 903 q 482 904 475 904 q 494 905 488 904 q 508 906 501 906 q 630 891 569 906 q 747 851 690 876 l 747 851 z "},"D":{"ha":957,"x_min":97,"x_max":893,"o":"m 722 83 q 581 22 657 39 q 426 1 504 6 q 383 0 404 0 q 340 0 361 0 l 97 0 l 97 885 l 356 885 q 398 885 376 885 q 440 883 419 885 q 588 863 515 879 q 722 801 661 846 q 843 658 800 747 q 892 475 886 569 q 893 458 893 467 q 893 442 893 450 q 893 433 893 438 q 893 424 893 428 q 846 233 889 325 q 722 83 803 142 l 722 83 m 335 199 q 344 198 339 199 q 353 197 349 197 q 363 197 358 197 q 371 196 367 196 q 400 197 385 196 q 429 199 415 197 q 500 211 465 201 q 563 240 535 221 q 628 327 607 272 q 650 442 650 382 q 650 453 650 447 q 649 464 650 458 q 624 566 646 517 q 563 644 601 615 q 498 676 533 668 q 425 686 463 685 q 410 686 418 686 q 396 686 403 686 l 335 686 l 335 199 l 335 199 z "},"E":{"ha":722,"x_min":110,"x_max":653,"o":"m 110 0 l 110 885 l 653 885 l 653 692 l 347 692 l 347 538 l 635 538 l 635 349 l 347 349 l 347 199 l 653 199 l 653 0 l 110 0 l 110 0 z "},"F":{"ha":583,"x_min":110,"x_max":653,"o":"m 110 0 l 110 885 l 653 885 l 653 692 l 347 692 l 347 538 l 635 538 l 635 349 l 347 349 l 347 0 l 110 0 l 110 0 z "},"G":{"ha":1069,"x_min":65,"x_max":997,"o":"m 525 326 l 525 511 l 997 511 q 997 477 997 494 q 997 443 997 460 q 988 325 996 383 q 954 211 979 267 q 786 40 896 97 q 557 -19 676 -18 q 552 -19 554 -19 q 549 -19 550 -19 q 542 -19 546 -19 q 536 -19 539 -19 q 276 57 399 -15 q 101 264 154 129 q 86 308 93 286 q 75 354 79 331 q 68 399 71 376 q 65 443 65 421 q 167 736 65 604 q 443 896 269 868 q 453 897 449 896 q 464 899 458 897 q 472 899 468 899 q 478 900 475 900 q 513 904 496 903 q 547 906 531 906 q 766 853 664 906 q 939 700 868 801 l 729 601 q 658 665 697 642 q 579 699 619 689 q 556 701 568 700 q 533 703 544 703 q 374 633 444 703 q 304 443 304 563 q 304 442 304 443 q 306 438 304 440 q 306 438 306 438 q 306 438 306 438 q 306 435 306 436 q 306 432 306 433 q 363 242 306 322 q 538 163 419 163 l 543 160 q 686 203 621 160 q 765 326 751 246 l 525 326 l 525 326 z "},"H":{"ha":986,"x_min":97,"x_max":900,"o":"m 97 0 l 97 885 l 338 885 l 338 543 l 660 543 l 660 885 l 900 885 l 900 0 l 660 0 l 660 360 l 338 360 l 338 0 l 97 0 l 97 0 z "},"I":{"ha":431,"x_min":104,"x_max":347,"o":"m 104 0 l 104 885 l 347 885 l 347 0 l 104 0 l 104 0 z "},"J":{"ha":639,"x_min":44,"x_max":567,"o":"m 329 885 l 567 885 l 567 300 q 567 284 567 292 q 567 269 567 276 q 555 169 565 218 q 515 79 544 119 q 428 7 479 31 q 322 -19 376 -17 q 317 -19 319 -19 q 311 -19 314 -19 q 298 -19 304 -19 q 286 -18 292 -19 q 151 24 215 -12 q 44 119 86 60 l 192 253 q 194 241 193 247 q 199 228 196 235 q 222 188 207 206 q 258 169 236 169 q 265 170 261 169 q 272 172 268 171 q 274 172 274 172 q 275 172 275 172 q 281 174 278 174 q 286 175 285 175 q 317 219 308 185 q 328 293 326 254 q 329 310 329 301 q 329 326 329 318 l 329 885 l 329 885 z "},"K":{"ha":958,"x_min":99,"x_max":928,"o":"m 99 0 l 99 885 l 338 885 l 338 483 l 617 885 l 899 885 l 572 454 l 928 0 l 626 0 l 338 399 l 338 0 l 99 0 l 99 0 z "},"L":{"ha":722,"x_min":117,"x_max":657,"o":"m 117 0 l 117 885 l 358 885 l 358 207 l 657 207 l 657 0 l 117 0 l 117 0 z "},"M":{"ha":1153,"x_min":40,"x_max":1114,"o":"m 1114 0 l 889 0 l 838 383 q 831 433 833 408 q 825 482 828 457 q 822 531 824 507 q 817 581 819 556 q 813 553 815 567 q 806 525 810 539 q 792 470 800 497 q 776 414 785 443 l 657 0 l 497 0 l 376 414 q 361 470 368 443 q 347 525 354 497 q 341 553 344 539 q 335 581 338 567 q 331 531 333 556 q 326 482 329 507 q 321 433 324 457 q 315 383 318 408 l 264 0 l 40 0 l 175 885 l 414 885 l 549 431 q 558 399 553 414 q 565 369 563 385 q 572 340 569 354 q 576 308 575 325 q 583 344 579 326 q 590 379 586 361 q 596 404 593 392 q 603 431 599 417 l 739 885 l 976 885 l 1114 0 l 1114 0 z "},"N":{"ha":1042,"x_min":104,"x_max":971,"o":"m 104 0 l 104 885 l 338 885 l 671 431 q 695 390 683 411 q 718 346 707 368 q 735 310 726 328 q 751 275 743 292 q 748 304 750 290 q 744 333 746 318 q 740 390 742 361 q 739 450 739 419 l 739 885 l 971 885 l 971 0 l 739 0 l 403 457 q 376 497 389 474 q 353 544 364 519 q 337 580 344 563 q 322 613 329 597 q 333 525 329 569 q 338 436 338 481 l 338 0 l 104 0 l 104 0 z "},"O":{"ha":1069,"x_min":58,"x_max":1004,"o":"m 115 660 q 293 840 179 778 q 531 903 407 903 q 565 901 547 903 q 599 899 582 900 q 701 874 650 892 q 797 826 751 856 q 950 656 896 763 q 1004 435 1004 550 q 1003 406 1004 421 q 1000 378 1003 392 q 990 320 997 349 q 971 264 982 292 q 789 55 913 129 q 529 -19 665 -19 q 510 -19 519 -19 q 492 -18 501 -18 q 398 -1 444 -14 q 308 33 351 11 q 125 208 192 94 q 58 443 58 321 q 60 479 58 461 q 65 517 61 497 q 85 590 72 553 q 115 660 97 626 l 115 660 m 747 342 q 755 371 751 356 q 760 401 758 386 q 762 421 761 411 q 763 439 763 431 q 762 456 763 447 q 761 472 761 464 q 725 588 754 532 q 644 674 696 643 q 617 686 631 681 q 589 696 603 692 q 561 701 575 699 q 533 703 547 703 q 403 658 463 703 q 319 540 343 614 q 317 535 318 538 q 317 529 317 532 q 310 503 313 517 q 304 476 307 490 q 302 458 303 467 q 301 439 301 449 q 301 428 301 433 q 303 418 301 424 q 348 278 307 344 q 461 192 389 213 q 478 187 469 189 q 496 183 486 185 q 513 181 504 182 q 529 181 521 181 q 662 224 603 181 q 747 342 721 268 l 747 342 z "},"P":{"ha":722,"x_min":113,"x_max":775,"o":"m 761 479 q 637 324 729 357 q 440 290 544 292 q 427 290 433 290 q 414 290 421 290 q 395 291 404 290 q 378 292 386 292 q 359 292 368 292 q 340 293 350 293 l 340 0 l 113 0 l 113 885 l 392 885 q 428 885 410 885 q 464 883 446 885 q 603 860 536 881 q 715 776 669 839 q 753 708 739 746 q 772 631 767 669 q 774 607 774 619 q 775 583 775 594 q 772 530 775 557 q 761 479 768 503 l 761 479 m 340 486 q 352 485 346 486 q 365 485 358 485 q 377 484 371 485 q 389 483 383 483 q 394 483 392 483 q 400 483 397 483 q 495 503 451 485 q 540 588 539 522 l 540 596 q 501 673 540 654 q 414 694 461 692 q 397 696 406 696 q 381 696 389 696 l 340 696 l 340 486 l 340 486 z "},"Q":{"ha":1069,"x_min":58,"x_max":1024,"o":"m 1024 -101 l 819 -101 l 725 21 q 646 -7 688 3 q 561 -19 604 -17 q 548 -19 554 -19 q 536 -19 542 -19 q 528 -19 532 -19 q 519 -19 524 -19 q 384 3 450 -17 q 264 58 318 24 q 114 224 167 125 q 58 428 61 322 q 58 433 58 431 q 58 439 58 436 q 58 456 58 447 q 60 472 58 464 q 110 651 67 564 q 232 801 154 739 q 364 876 293 850 q 507 906 435 901 q 518 906 513 906 q 529 906 524 906 q 808 819 678 906 q 986 576 939 733 q 995 537 992 557 q 1001 496 999 517 q 1003 471 1003 483 q 1004 446 1004 458 q 967 265 1004 353 q 863 110 931 178 l 1024 -101 l 1024 -101 m 594 193 l 471 353 l 678 353 l 725 293 q 747 342 739 315 q 760 396 756 368 q 762 416 761 406 q 763 436 763 426 q 762 458 763 447 q 760 479 761 468 q 755 513 758 496 q 747 543 751 529 q 663 657 722 614 q 536 703 603 700 q 532 703 533 703 q 529 703 531 703 q 516 702 522 703 q 503 701 510 701 q 452 688 478 697 q 403 660 426 678 q 332 576 357 625 q 301 474 307 526 q 300 460 300 467 q 300 446 300 453 q 300 444 300 444 q 300 442 300 443 q 362 260 301 343 q 518 178 422 178 q 541 180 529 178 q 565 185 553 182 q 580 188 572 186 q 594 193 588 190 l 594 193 z "},"R":{"ha":846,"x_min":106,"x_max":808,"o":"m 333 347 l 333 0 l 106 0 l 106 885 l 424 885 q 457 884 440 885 q 490 882 474 883 q 583 867 538 879 q 667 826 629 856 q 738 735 714 789 q 765 621 763 681 l 765 613 q 716 444 765 507 q 567 358 667 382 l 808 0 l 536 0 l 333 347 l 333 347 m 333 468 q 340 467 336 468 q 347 467 343 467 q 353 466 350 467 q 360 465 357 465 q 362 465 361 465 q 364 465 363 465 q 474 484 424 465 q 526 581 525 503 l 526 588 q 478 679 526 660 q 371 700 429 699 q 356 700 364 700 q 342 700 349 700 l 333 700 l 333 468 l 333 468 z "},"S":{"ha":793,"x_min":76,"x_max":729,"o":"m 188 286 q 190 284 189 285 q 192 282 190 283 q 276 205 229 240 q 385 167 324 169 q 388 166 386 167 q 392 165 390 165 q 395 165 393 165 q 399 164 397 164 q 410 165 404 164 q 422 167 417 165 q 465 183 444 171 q 496 214 485 196 q 499 219 497 217 q 501 225 500 222 q 506 243 504 235 q 507 258 507 251 q 474 322 507 296 q 404 361 442 347 q 375 370 389 367 q 349 376 361 374 q 346 377 347 376 q 343 378 344 378 q 215 431 275 394 q 133 538 156 468 q 126 567 129 551 q 121 599 122 582 q 119 609 119 604 q 119 619 119 614 q 120 642 119 631 q 124 664 121 653 q 138 719 128 692 q 163 769 147 747 q 277 875 207 843 q 424 907 347 907 q 460 905 442 907 q 499 900 479 903 q 598 872 549 892 q 689 826 647 853 l 613 656 q 533 704 575 683 q 443 725 492 725 q 438 725 440 725 q 432 725 435 725 q 372 697 400 721 q 344 644 344 672 q 345 636 344 640 q 349 628 346 632 q 358 610 351 618 q 374 594 365 601 q 418 572 389 582 q 479 551 447 561 q 531 538 506 544 q 572 526 556 532 q 689 434 650 499 q 729 297 728 369 q 729 293 729 294 q 729 290 729 292 q 728 274 729 282 q 728 258 728 265 q 681 121 719 186 q 579 21 643 56 q 531 2 556 10 q 481 -11 506 -6 q 439 -17 460 -15 q 399 -19 418 -19 q 391 -19 394 -19 q 383 -19 388 -19 q 219 17 300 -17 q 76 108 139 51 l 188 286 l 188 286 z "},"T":{"ha":682,"x_min":104,"x_max":740,"o":"m 301 0 l 301 675 l 104 675 l 104 885 l 740 885 l 740 675 l 543 675 l 543 0 l 301 0 l 301 0 z "},"U":{"ha":971,"x_min":97,"x_max":885,"o":"m 99 885 l 340 885 l 340 515 q 340 494 340 506 q 339 468 339 482 q 338 451 339 460 q 338 433 338 443 q 338 424 338 429 q 338 414 338 419 q 338 398 338 406 q 338 383 338 390 q 344 311 339 346 q 360 250 349 276 q 413 195 375 215 q 493 175 450 175 q 496 175 494 175 q 499 175 497 175 q 575 196 539 176 q 626 250 611 215 q 641 311 638 276 q 646 383 644 346 q 646 398 646 390 q 646 414 646 406 l 646 885 l 885 885 l 885 381 q 885 355 885 368 q 883 329 885 342 q 865 199 881 263 q 808 86 850 135 q 700 12 764 33 q 568 -17 636 -10 q 530 -19 549 -18 q 493 -19 511 -19 q 454 -19 474 -19 q 415 -17 435 -18 q 284 13 347 -10 q 175 86 221 35 q 117 199 133 135 q 99 329 101 263 q 97 355 97 342 q 97 381 97 368 q 97 400 97 390 q 97 419 97 410 q 97 433 97 426 q 99 447 97 440 q 99 478 99 463 q 99 508 99 494 l 99 885 l 99 885 z "},"V":{"ha":958,"x_min":108,"x_max":1031,"o":"m 478 0 l 108 885 l 363 885 l 538 389 q 550 351 544 371 q 561 311 556 332 q 565 292 563 301 q 569 272 568 282 q 574 292 572 282 q 578 311 576 301 q 587 351 582 332 q 599 389 592 371 l 775 885 l 1031 885 l 660 0 l 478 0 l 478 0 z "},"W":{"ha":1263,"x_min":97,"x_max":1317,"o":"m 804 885 l 914 464 q 930 399 922 432 q 943 335 938 367 q 951 367 947 351 q 957 400 954 383 q 963 431 960 415 q 971 464 967 447 l 1074 885 l 1317 885 l 1067 0 l 844 0 l 736 378 q 728 408 732 393 q 721 438 724 422 q 713 467 717 453 q 704 497 708 482 q 698 467 701 482 q 690 438 694 453 q 683 408 688 422 q 675 378 679 393 l 567 0 l 344 0 l 97 885 l 338 885 l 439 461 q 447 428 443 444 q 454 396 451 413 q 460 363 457 379 q 465 331 464 347 q 474 363 469 347 q 482 396 478 379 q 483 402 482 399 q 485 408 485 406 q 491 435 488 422 q 497 461 494 449 l 610 885 l 804 885 l 804 885 z "},"X":{"ha":1000,"x_min":50,"x_max":957,"o":"m 472 679 q 490 644 483 661 q 501 608 497 626 q 504 616 503 613 q 507 622 506 619 q 519 651 513 636 q 533 679 525 665 l 639 885 l 925 885 l 631 460 l 957 0 l 685 0 l 533 264 q 521 287 526 275 q 511 311 515 299 q 509 316 510 314 q 507 321 508 318 q 504 327 506 324 q 501 335 503 331 q 499 323 500 329 q 494 311 497 317 q 485 287 490 299 q 472 264 479 275 l 322 0 l 50 0 l 376 464 l 81 885 l 367 885 l 472 679 l 472 679 z "},"Y":{"ha":889,"x_min":104,"x_max":954,"o":"m 413 0 l 413 406 l 104 885 l 381 885 l 500 657 q 506 642 503 650 q 513 628 510 635 q 522 606 518 617 q 529 583 526 596 q 536 606 532 596 q 546 628 540 617 q 553 642 549 635 q 561 657 557 650 l 678 885 l 954 885 l 644 406 l 644 0 l 413 0 l 413 0 z "},"Z":{"ha":918,"x_min":50,"x_max":881,"o":"m 831 0 l 50 0 l 496 693 l 138 693 l 138 885 l 881 885 l 436 193 l 831 193 l 831 0 l 831 0 z "},"[":{"ha":489,"x_min":113,"x_max":418,"o":"m 113 906 l 418 906 l 418 758 l 286 758 l 286 -131 l 418 -131 l 418 -276 l 113 -276 l 113 906 l 113 906 z "},"\\":{"ha":722,"x_min":79,"x_max":646,"o":"m 511 -112 l 79 906 l 214 906 l 646 -112 l 511 -112 l 511 -112 z "},"]":{"ha":501,"x_min":81,"x_max":388,"o":"m 388 906 l 388 -276 l 81 -276 l 81 -131 l 211 -131 l 211 758 l 81 758 l 81 906 l 388 906 l 388 906 z "},"^":{"ha":835,"x_min":51,"x_max":788,"o":"m 333 885 l 508 885 l 788 544 l 628 544 l 421 750 l 211 544 l 51 544 l 333 885 l 333 885 z "},"_":{"ha":642,"x_min":15,"x_max":635,"o":"m 15 -144 l 635 -144 l 635 -290 l 15 -290 l 15 -144 l 15 -144 z "},"`":{"ha":515,"x_min":76,"x_max":431,"o":"m 204 885 l 431 885 l 243 508 l 76 508 l 204 885 l 204 885 z "},"a":{"ha":806,"x_min":47,"x_max":732,"o":"m 732 610 l 732 3 l 533 3 l 533 99 q 439 10 490 40 q 319 -19 388 -19 q 295 -19 308 -19 q 268 -17 282 -19 q 112 80 164 -1 q 50 257 60 161 q 48 281 49 269 q 47 304 47 293 q 47 313 47 308 q 49 324 47 318 q 50 342 49 332 q 51 361 51 351 q 53 369 53 365 q 54 378 54 374 q 142 560 69 489 q 329 631 215 631 q 448 599 400 631 q 533 511 496 568 l 533 610 l 732 610 l 732 610 m 261 313 q 298 212 264 257 q 400 167 332 167 q 503 212 468 167 q 538 311 538 257 q 538 317 538 314 q 538 322 538 319 q 499 417 533 374 q 400 460 464 460 q 299 416 333 460 q 261 321 264 372 q 261 316 261 318 q 261 313 261 314 l 261 313 z "},"b":{"ha":819,"x_min":79,"x_max":761,"o":"m 79 936 l 283 936 l 283 619 q 283 563 283 590 q 279 508 282 536 q 364 601 318 569 q 486 632 410 632 q 684 545 614 629 q 761 342 754 461 l 761 300 q 761 294 761 297 q 761 286 761 290 q 706 91 758 181 q 540 -14 653 1 q 510 -18 525 -17 q 482 -19 496 -19 q 367 12 418 -19 q 276 99 317 43 l 276 0 l 79 0 l 79 936 l 79 936 m 410 167 q 511 211 471 167 q 551 313 551 256 q 551 316 551 314 q 551 321 551 318 q 513 416 549 372 q 410 460 478 460 q 310 416 344 460 q 272 321 275 372 q 272 316 272 318 q 272 313 272 314 q 272 310 272 311 q 272 308 272 310 q 308 211 274 256 q 410 167 343 167 l 410 167 z "},"c":{"ha":610,"x_min":51,"x_max":526,"o":"m 526 410 q 469 447 500 432 q 403 461 438 461 q 394 461 399 461 q 385 461 390 461 q 377 460 381 461 q 371 460 374 460 q 292 403 318 447 q 265 308 265 360 q 306 192 265 232 q 400 151 347 151 q 423 153 411 151 q 446 158 435 156 q 488 177 468 165 q 526 207 508 189 l 526 21 q 485 4 506 11 q 443 -8 464 -3 q 401 -15 422 -12 q 360 -17 381 -17 q 144 69 238 -17 q 51 301 51 154 l 54 306 q 148 542 54 451 q 367 632 242 632 q 406 630 386 632 q 447 622 426 628 q 487 610 467 617 q 526 592 507 603 l 526 410 l 526 410 z "},"d":{"ha":819,"x_min":58,"x_max":747,"o":"m 747 936 l 747 0 l 549 0 l 549 99 q 460 12 510 43 q 344 -19 410 -19 q 328 -19 338 -19 q 311 -17 319 -18 q 299 -16 306 -17 q 288 -14 293 -15 q 117 93 174 3 q 58 288 60 183 q 58 290 58 289 q 58 293 58 292 q 58 301 58 297 q 58 308 58 304 q 137 531 64 431 q 344 632 210 632 q 464 599 418 631 q 549 508 510 568 q 544 563 546 536 q 543 619 543 590 l 543 936 l 747 936 l 747 936 m 418 167 q 518 211 478 167 q 558 313 558 256 q 558 316 558 314 q 558 321 558 318 q 520 416 556 372 q 418 460 485 460 q 318 416 354 460 q 279 321 282 372 q 279 316 279 318 q 279 313 279 314 q 279 310 279 311 q 279 308 279 310 q 317 211 281 256 q 418 167 353 167 l 418 167 z "},"e":{"ha":779,"x_min":54,"x_max":722,"o":"m 722 264 l 258 264 q 293 160 263 201 q 392 117 324 119 q 394 117 393 117 q 396 117 394 117 q 397 115 396 115 q 399 115 397 115 q 474 133 440 115 q 531 189 508 151 l 693 124 q 580 13 657 49 q 417 -24 503 -22 q 413 -24 415 -24 q 410 -24 411 -24 q 405 -24 407 -24 q 400 -24 403 -24 q 249 7 322 -22 q 131 90 175 36 q 77 178 97 129 q 54 279 57 228 q 54 287 54 283 q 54 294 54 290 q 55 304 54 299 q 57 315 56 310 q 58 325 57 319 q 58 335 58 331 q 172 551 74 472 q 396 631 271 631 q 448 627 422 631 q 500 617 474 624 q 675 481 631 579 q 722 264 719 383 l 722 264 m 389 500 q 305 468 333 500 q 265 385 276 436 l 511 385 q 473 466 504 433 q 389 500 442 499 l 389 500 z "},"f":{"ha":486,"x_min":39,"x_max":450,"o":"m 131 0 l 131 460 l 39 460 l 39 610 l 131 610 l 131 736 q 197 899 131 851 q 356 947 263 947 q 378 947 367 947 q 403 944 390 946 q 427 942 415 943 q 450 939 439 940 l 450 775 q 423 781 436 779 q 399 783 410 783 q 351 753 361 783 q 340 686 340 724 q 340 672 340 679 q 340 657 340 664 q 340 652 340 654 q 342 647 340 650 q 342 628 342 638 q 342 610 342 618 l 450 610 l 450 460 l 342 460 l 342 0 l 131 0 l 131 0 z "},"g":{"ha":806,"x_min":44,"x_max":732,"o":"m 732 610 l 732 3 q 629 -212 732 -158 q 383 -267 526 -267 q 356 -266 369 -267 q 328 -264 342 -265 q 161 -212 238 -256 q 79 -64 85 -168 l 301 -65 q 335 -108 308 -94 q 393 -122 363 -121 q 396 -122 394 -122 q 399 -122 397 -122 q 411 -122 404 -122 q 425 -121 418 -121 q 444 -117 435 -119 q 461 -114 454 -115 q 510 -65 497 -100 q 526 8 524 -29 q 526 22 526 15 q 526 36 526 29 l 526 104 q 435 20 488 46 q 319 -6 382 -6 q 295 -6 308 -6 q 268 -3 282 -6 q 107 92 160 10 q 46 272 54 175 q 45 293 46 283 q 44 313 44 303 q 45 328 44 319 q 47 344 46 336 q 47 349 47 347 q 49 354 47 351 q 50 369 49 361 q 51 383 51 376 q 142 563 68 494 q 329 631 215 631 l 333 631 q 449 599 399 631 q 533 514 500 567 l 533 610 l 732 610 l 732 610 m 406 460 q 297 415 338 460 q 257 315 257 369 q 301 210 257 253 q 406 167 346 167 q 506 211 472 167 q 540 308 539 256 q 540 310 540 310 q 540 313 540 311 q 540 316 540 314 q 540 321 540 318 q 504 416 538 372 q 406 460 471 460 l 406 460 z "},"h":{"ha":806,"x_min":63,"x_max":718,"o":"m 63 0 l 63 936 l 275 936 l 275 608 q 273 565 275 586 q 268 521 271 543 q 266 508 267 514 q 265 497 265 503 q 361 597 308 563 q 489 631 414 631 l 518 631 q 523 631 521 631 q 526 631 525 631 q 617 602 574 625 q 686 538 660 579 q 711 464 706 503 q 718 385 717 425 q 718 366 718 375 q 718 349 718 357 l 718 0 l 501 0 l 501 326 q 501 349 501 338 q 500 372 501 360 q 488 421 497 397 q 454 457 478 444 q 441 462 449 460 q 425 464 433 464 q 414 465 419 465 q 403 465 408 465 q 397 465 400 465 q 392 465 394 465 q 377 464 385 465 q 363 461 369 463 q 296 403 313 444 q 276 315 279 361 q 275 285 275 300 q 275 257 275 271 l 275 0 l 63 0 l 63 0 z "},"i":{"ha":363,"x_min":61,"x_max":300,"o":"m 74 0 l 74 610 l 290 610 l 290 0 l 74 0 l 74 0 m 61 799 q 98 884 61 846 q 178 925 135 922 q 180 925 179 925 q 182 925 181 925 q 264 886 228 925 q 300 799 300 847 q 265 717 300 746 q 188 685 231 688 q 184 685 186 685 q 181 685 182 685 q 177 685 179 685 q 174 685 175 685 q 96 717 131 688 q 61 799 61 746 l 61 799 z "},"j":{"ha":363,"x_min":61,"x_max":300,"o":"m 74 -268 l 74 610 l 290 610 l 290 -268 l 74 -268 l 74 -268 m 300 799 q 265 717 300 746 q 188 685 231 688 q 184 685 186 685 q 181 685 182 685 q 177 685 179 685 q 174 685 175 685 q 96 717 131 688 q 61 799 61 746 q 98 884 61 846 q 178 925 135 922 q 180 925 179 925 q 182 925 181 925 q 264 886 228 925 q 300 799 300 847 l 300 799 z "},"k":{"ha":833,"x_min":69,"x_max":794,"o":"m 69 0 l 69 936 l 282 936 l 282 344 l 501 610 l 769 610 l 496 318 l 794 0 l 511 0 l 282 272 l 282 0 l 69 0 l 69 0 z "},"l":{"ha":349,"x_min":68,"x_max":283,"o":"m 68 0 l 68 936 l 283 936 l 283 0 l 68 0 l 68 0 z "},"m":{"ha":1153,"x_min":63,"x_max":1083,"o":"m 869 0 l 869 333 q 869 341 869 338 q 869 347 869 344 q 852 433 868 394 q 783 472 836 472 l 769 472 q 699 427 718 467 q 675 342 679 388 q 674 322 674 332 q 674 301 674 311 q 674 290 674 296 q 675 281 674 285 q 675 269 675 275 q 675 258 675 264 l 675 0 l 465 0 l 465 333 q 465 341 465 338 q 465 347 465 344 q 450 433 464 394 q 381 472 436 472 l 367 472 q 292 426 311 467 q 269 338 272 385 q 268 315 268 326 q 268 294 268 304 q 268 285 268 290 q 269 276 268 281 q 269 267 269 272 q 269 258 269 263 l 269 0 l 63 0 l 63 610 l 275 610 l 275 504 q 358 597 311 564 q 479 631 406 631 l 486 631 q 597 603 551 631 q 668 515 642 575 q 760 599 706 568 q 878 631 815 631 q 903 629 890 631 q 929 626 915 628 q 949 621 939 624 q 968 614 958 618 q 1069 504 1054 578 q 1083 349 1083 431 l 1083 0 l 869 0 l 869 0 z "},"n":{"ha":806,"x_min":79,"x_max":733,"o":"m 79 0 l 79 610 l 275 610 l 275 486 q 373 593 319 556 q 507 631 426 631 l 533 631 q 541 630 538 631 q 549 629 544 629 q 636 601 594 624 q 703 538 678 578 q 727 464 722 503 q 733 385 732 425 q 733 366 733 375 q 733 349 733 357 l 733 0 l 518 0 l 518 326 q 517 349 518 338 q 517 372 517 360 q 503 421 513 397 q 471 457 493 444 q 457 462 465 460 q 440 464 449 464 q 429 465 435 465 q 418 465 424 465 q 410 465 414 465 q 400 464 406 465 q 388 463 394 464 q 378 461 382 463 q 311 403 328 444 q 292 315 294 361 q 290 285 290 300 q 290 257 290 271 l 290 0 l 79 0 l 79 0 z "},"o":{"ha":779,"x_min":50,"x_max":729,"o":"m 704 181 q 581 38 665 90 q 404 -19 497 -14 q 394 -19 399 -19 q 385 -19 389 -19 q 356 -18 371 -19 q 328 -14 342 -17 q 276 -3 301 -10 q 229 15 251 4 q 99 138 147 58 q 50 306 50 218 q 51 338 50 321 q 57 371 53 354 q 69 416 61 393 q 90 460 78 439 q 218 586 136 542 q 389 631 300 631 q 419 629 404 631 q 449 625 433 628 q 517 608 483 619 q 579 576 550 596 q 682 471 643 538 q 728 332 721 404 q 728 316 728 324 q 729 301 729 308 q 728 281 729 292 q 726 261 728 271 q 718 220 724 240 q 704 181 713 200 l 704 181 m 389 449 q 298 408 332 449 q 264 318 264 368 q 302 225 264 265 q 389 185 340 185 q 481 226 450 185 q 511 315 511 267 q 511 319 511 317 q 511 324 511 321 q 478 409 508 369 q 389 449 449 449 l 389 449 z "},"p":{"ha":819,"x_min":79,"x_max":763,"o":"m 79 -268 l 79 610 l 276 610 l 276 508 q 373 598 317 565 q 493 631 429 631 q 522 628 507 631 q 553 624 538 626 q 572 618 563 621 q 590 613 582 615 q 720 492 678 578 q 763 313 763 407 q 763 305 763 308 q 763 297 763 301 q 688 79 758 178 q 489 -19 617 -19 l 482 -21 q 363 10 408 -19 q 279 99 317 40 q 281 72 281 85 q 283 46 282 58 q 283 20 283 33 q 283 -6 283 7 l 283 -268 l 79 -268 l 79 -268 m 410 153 q 508 201 465 153 q 551 308 551 249 q 513 415 551 368 q 410 461 475 461 q 307 413 342 461 q 272 308 272 365 q 272 305 272 307 q 272 300 272 303 q 310 199 275 246 q 410 153 344 153 l 410 153 z "},"q":{"ha":806,"x_min":44,"x_max":733,"o":"m 733 -268 l 529 -268 l 529 -7 q 529 20 529 7 q 531 46 529 33 q 533 72 532 58 q 536 99 535 85 q 451 10 497 40 q 331 -19 406 -19 l 319 -21 q 121 78 192 -19 q 44 292 50 175 q 44 302 44 297 q 44 311 44 307 q 44 317 44 314 q 44 322 44 319 q 98 507 47 421 q 247 621 149 593 q 288 629 268 626 q 326 632 308 632 q 444 599 392 632 q 536 508 496 565 l 536 610 l 733 610 l 733 -268 l 733 -268 m 400 460 q 300 413 339 460 q 261 306 261 367 q 303 199 261 246 q 400 151 344 151 q 501 199 467 151 q 536 301 535 246 q 536 303 536 303 q 536 306 536 304 q 502 412 536 364 q 400 460 468 460 l 400 460 z "},"r":{"ha":599,"x_min":83,"x_max":558,"o":"m 83 0 l 83 610 l 286 610 l 286 468 q 329 542 303 508 q 394 599 356 575 q 444 619 418 614 q 497 624 471 624 q 512 623 504 624 q 528 622 519 622 q 544 622 536 622 q 558 621 551 621 l 536 425 q 529 427 533 426 q 522 428 525 428 q 488 434 504 432 q 457 436 471 436 q 342 391 386 436 q 297 254 297 346 l 297 0 l 83 0 l 83 0 z "},"s":{"ha":653,"x_min":51,"x_max":592,"o":"m 51 51 l 97 217 q 183 162 138 182 q 282 133 229 142 q 285 133 283 133 q 292 132 288 132 q 297 131 294 132 q 304 131 300 131 q 319 131 311 131 q 335 133 328 132 q 379 149 360 138 q 399 178 399 160 q 397 188 399 182 q 394 200 396 193 q 392 205 393 203 q 389 210 390 207 q 356 233 379 225 q 308 246 333 240 q 291 249 300 247 q 272 253 282 251 q 258 256 265 254 q 246 258 251 257 q 147 308 193 276 q 88 396 100 339 q 87 401 88 399 q 86 408 86 404 q 85 411 86 410 q 85 414 85 413 q 84 423 85 418 q 83 432 83 428 q 83 440 83 436 q 85 449 83 444 q 107 524 88 488 q 157 583 126 560 q 222 615 186 604 q 296 629 258 626 q 308 631 301 631 q 322 631 315 631 q 351 630 336 631 q 381 626 365 629 q 483 606 432 621 q 574 574 533 590 l 529 425 q 447 469 490 451 q 353 486 404 486 q 341 486 347 486 q 328 485 335 486 q 297 474 311 482 q 279 449 283 467 l 276 442 q 276 440 276 440 q 276 438 276 439 q 287 415 278 425 q 308 403 296 406 q 341 392 325 397 q 374 382 357 386 q 383 379 378 381 q 392 376 388 378 q 427 367 410 372 q 461 356 444 363 q 553 290 521 333 q 590 200 585 247 q 592 190 592 194 q 592 181 592 185 q 592 170 592 175 q 590 160 592 165 q 567 91 586 125 q 515 32 549 57 q 434 -8 479 4 q 342 -21 389 -19 q 334 -21 338 -21 q 326 -21 331 -21 q 302 -20 314 -21 q 278 -18 290 -19 q 158 8 217 -11 q 51 51 99 26 l 51 51 z "},"t":{"ha":486,"x_min":51,"x_max":446,"o":"m 142 0 l 142 460 l 51 460 l 51 610 l 142 610 l 142 793 l 353 793 l 353 610 l 446 610 l 446 460 l 353 460 l 353 0 l 142 0 l 142 0 z "},"u":{"ha":776,"x_min":69,"x_max":703,"o":"m 703 610 l 703 300 q 688 157 703 222 q 608 39 674 92 q 517 -3 569 11 q 411 -21 465 -18 q 399 -21 404 -21 q 388 -21 393 -21 q 376 -21 382 -21 q 365 -21 371 -21 q 256 -3 310 -18 q 164 39 203 11 q 84 156 99 89 q 69 300 69 224 l 69 610 l 276 610 l 276 286 q 296 185 276 229 q 383 142 315 142 q 472 184 454 142 q 490 286 490 226 l 490 610 l 703 610 l 703 610 z "},"v":{"ha":806,"x_min":43,"x_max":761,"o":"m 318 0 l 43 610 l 272 610 l 376 342 q 383 322 381 332 q 390 303 386 313 q 399 275 394 289 q 406 246 403 261 q 410 275 407 261 q 419 303 414 289 q 426 322 422 313 q 435 342 431 332 l 538 610 l 761 610 l 483 0 l 318 0 l 318 0 z "},"w":{"ha":1113,"x_min":36,"x_max":1078,"o":"m 621 610 l 711 342 q 719 317 715 329 q 726 294 724 306 q 733 270 731 282 q 739 246 736 258 q 744 270 742 258 q 750 294 747 282 q 757 317 753 306 q 765 342 761 329 l 856 610 l 1078 610 l 822 0 l 671 0 l 581 276 q 567 324 572 300 q 556 371 561 349 q 553 363 554 367 q 553 356 553 360 q 544 316 549 336 q 531 276 539 296 l 442 0 l 290 0 l 36 610 l 257 610 l 349 342 q 356 317 353 329 q 363 294 360 306 q 368 270 365 282 q 374 246 371 258 q 379 270 376 258 q 385 294 382 282 q 392 317 389 306 q 400 342 396 329 l 490 610 l 621 610 l 621 610 z "},"x":{"ha":793,"x_min":33,"x_max":757,"o":"m 360 507 q 363 501 361 504 q 365 494 364 497 q 371 483 368 489 q 376 471 374 476 q 384 453 381 463 q 389 435 388 444 q 413 495 399 467 q 444 553 428 524 q 449 559 447 556 q 453 567 451 563 q 466 588 460 578 q 478 610 472 599 l 721 610 l 511 326 l 757 0 l 514 0 l 421 156 q 404 189 411 171 q 392 228 397 207 q 380 189 386 207 q 363 156 374 171 l 272 0 l 33 0 l 272 326 l 68 610 l 304 610 l 360 507 l 360 507 z "},"y":{"ha":779,"x_min":39,"x_max":736,"o":"m 113 -268 l 283 94 l 39 610 l 276 610 l 363 389 q 378 342 371 367 q 389 294 385 318 q 394 310 392 303 q 399 326 396 318 q 408 358 403 342 q 418 389 413 374 l 507 610 l 736 610 l 351 -268 l 113 -268 l 113 -268 z "},"z":{"ha":739,"x_min":44,"x_max":692,"o":"m 664 0 l 44 0 l 358 453 l 86 453 l 86 610 l 692 610 l 367 167 l 664 167 l 664 0 l 664 0 z "},"{":{"ha":596,"x_min":74,"x_max":522,"o":"m 522 893 l 522 747 q 426 731 454 747 q 399 638 399 715 l 399 493 q 374 378 397 415 q 269 322 350 342 q 374 267 350 304 q 399 151 397 229 l 399 4 q 420 -82 399 -64 q 497 -100 442 -100 l 522 -101 l 522 -247 l 449 -247 q 428 -246 439 -246 q 407 -244 417 -246 q 358 -240 382 -244 q 313 -228 333 -236 q 239 -156 250 -206 q 228 -49 228 -106 l 228 104 q 196 218 228 189 q 86 247 164 247 l 74 247 l 74 394 q 194 423 160 394 q 228 540 228 451 l 228 693 q 239 801 228 750 q 313 874 250 851 q 365 888 338 883 q 421 892 393 892 q 443 893 432 893 q 465 893 454 893 l 522 893 l 522 893 z "},"|":{"ha":349,"x_min":97,"x_max":240,"o":"m 97 946 l 240 946 l 240 -290 l 97 -290 l 97 946 l 97 946 z "},"}":{"ha":610,"x_min":83,"x_max":531,"o":"m 83 893 l 146 893 q 169 893 157 893 q 192 892 181 893 q 256 884 225 890 q 313 864 286 878 q 364 808 351 844 q 378 731 376 771 q 378 712 378 721 q 378 693 378 703 l 378 531 q 413 422 378 451 q 519 392 447 392 q 522 392 521 392 q 525 393 524 392 q 525 393 525 393 q 525 393 525 393 q 529 394 528 393 q 531 394 531 394 l 531 247 q 529 247 531 247 q 525 247 528 247 q 525 246 525 246 q 525 246 525 246 q 522 246 524 246 q 519 246 521 246 q 412 217 447 246 q 376 110 376 188 q 376 109 376 110 q 378 107 376 108 q 378 105 378 106 q 378 104 378 104 l 378 -50 q 367 -156 378 -106 q 293 -228 356 -206 q 254 -239 275 -235 q 211 -244 233 -243 q 183 -246 197 -246 q 156 -246 169 -246 l 83 -247 l 83 -101 l 106 -101 q 186 -82 163 -100 q 210 4 210 -64 l 210 151 q 234 267 210 229 q 335 322 258 304 q 234 378 258 342 q 210 493 210 415 l 210 638 q 181 731 210 715 q 83 747 153 747 l 83 893 l 83 893 z "},"~":{"ha":903,"x_min":43,"x_max":860,"o":"m 860 496 l 860 342 q 740 279 792 300 q 639 258 688 258 q 553 271 599 258 q 449 304 507 283 q 358 329 400 321 q 279 338 315 338 q 249 335 264 338 q 218 331 233 333 q 136 299 178 321 q 43 243 94 276 l 43 396 q 153 453 101 432 q 254 481 204 475 q 271 481 263 481 q 288 482 279 482 q 365 474 324 482 q 454 450 407 465 q 558 418 514 431 q 642 406 603 406 q 651 406 646 406 q 660 407 656 406 q 751 432 704 410 q 860 496 799 454 l 860 496 z "},"":{"ha":1250,"x_min":106,"x_max":1167,"o":"m 757 199 l 925 199 l 925 885 l 1167 885 l 1167 0 l 106 0 l 106 885 l 347 885 l 347 199 l 515 199 l 515 885 l 757 885 l 757 199 l 757 199 z "},"":{"ha":722,"x_min":113,"x_max":775,"o":"m 761 479 q 637 324 729 357 q 440 290 544 292 q 427 290 433 290 q 414 290 421 290 q 395 291 404 290 q 378 292 386 292 q 359 292 368 292 q 340 293 350 293 l 340 0 l 113 0 l 113 885 l 392 885 q 428 885 410 885 q 464 883 446 885 q 603 860 536 881 q 715 776 669 839 q 753 708 739 746 q 772 631 767 669 q 774 607 774 619 q 775 583 775 594 q 772 530 775 557 q 761 479 768 503 l 761 479 m 340 486 q 352 485 346 486 q 365 485 358 485 q 377 484 371 485 q 389 483 383 483 q 394 483 392 483 q 400 483 397 483 q 495 503 451 485 q 540 588 539 522 l 540 596 q 501 673 540 654 q 414 694 461 692 q 397 696 406 696 q 381 696 389 696 l 340 696 l 340 486 l 340 486 z "},"":{"ha":0,"x_min":0,"x_max":0,"o":""},"":{"ha":849,"x_min":99,"x_max":793,"o":"m 324 885 l 324 531 l 381 531 q 431 530 404 531 q 485 528 457 529 q 551 520 518 525 q 610 507 583 515 q 741 413 689 478 q 793 253 793 347 l 793 232 q 697 61 786 107 q 500 6 607 15 q 422 1 461 1 q 349 0 383 0 l 99 0 l 99 885 l 324 885 l 324 885 m 563 261 l 563 279 q 521 352 563 333 q 431 374 479 371 q 420 374 425 374 q 410 374 415 374 l 324 374 l 324 182 q 342 182 332 182 q 363 182 351 182 q 374 181 368 181 q 385 181 379 181 q 396 181 390 181 q 407 181 401 181 q 416 181 411 181 q 426 181 421 181 q 517 198 475 182 q 563 261 558 214 l 563 261 z "},"":{"ha":846,"x_min":33,"x_max":799,"o":"m 268 -119 l 268 496 q 264 495 267 496 q 260 494 261 494 q 254 494 257 494 q 250 493 251 493 q 93 558 150 493 q 33 699 36 622 q 33 703 33 701 q 33 707 33 706 q 33 713 33 710 q 33 718 33 715 q 96 855 38 793 q 268 917 154 917 l 799 917 l 799 772 l 739 772 l 739 -119 l 551 -119 l 551 772 l 457 772 l 457 -119 l 268 -119 l 268 -119 z "},"":{"ha":1026,"x_min":69,"x_max":958,"o":"m 268 0 l 268 675 l 69 675 l 69 885 l 490 885 l 490 531 l 547 531 q 599 530 571 531 q 656 526 628 529 q 721 519 689 524 q 779 507 753 515 q 908 413 857 478 q 958 253 958 347 l 958 232 q 918 110 957 164 q 817 33 879 57 q 733 11 778 18 q 644 1 689 4 q 609 0 626 0 q 574 0 592 0 l 268 0 l 268 0 m 490 374 l 490 182 q 508 182 499 182 q 529 182 518 182 q 540 181 535 181 q 551 181 546 181 q 563 181 557 181 q 574 181 568 181 q 584 181 579 181 q 593 181 589 181 q 683 198 642 182 q 732 261 725 214 l 732 279 q 689 354 732 336 q 593 374 646 372 q 587 374 590 374 q 579 374 583 374 l 490 374 l 490 374 z "},"":{"ha":1222,"x_min":119,"x_max":1160,"o":"m 344 885 l 344 531 l 400 531 q 450 530 424 531 q 503 528 476 529 q 571 520 538 525 q 631 507 604 515 q 761 413 710 478 q 813 253 813 347 l 813 232 q 717 61 807 107 q 522 6 628 15 q 443 1 482 1 q 369 0 404 0 l 119 0 l 119 885 l 344 885 l 344 885 m 344 182 q 363 182 353 182 q 383 182 372 182 q 394 181 389 181 q 406 181 400 181 q 417 181 411 181 q 428 181 422 181 q 440 181 433 181 q 453 181 446 181 q 540 199 500 183 q 583 261 579 215 l 583 279 q 544 351 583 332 q 456 374 504 371 q 444 374 450 374 q 431 374 438 374 l 344 374 l 344 182 l 344 182 m 1160 0 l 914 0 l 914 885 l 1160 885 l 1160 0 l 1160 0 z "},"":{"ha":1069,"x_min":51,"x_max":1001,"o":"m 1001 -217 l 757 -217 l 768 0 l 282 0 l 293 -217 l 51 -217 l 51 200 l 97 200 q 115 220 107 211 q 129 239 122 229 q 147 268 139 253 q 161 301 154 283 q 167 320 164 310 q 175 342 171 331 q 206 525 193 410 q 222 885 218 640 l 907 885 l 907 199 l 1001 199 l 1001 -217 l 1001 -217 m 403 283 q 392 253 397 267 q 383 229 388 240 q 373 212 378 219 q 363 200 368 204 l 667 200 l 667 692 l 457 692 q 438 463 451 569 q 403 283 424 357 l 403 283 z "},"":{"ha":971,"x_min":97,"x_max":900,"o":"m 97 0 l 97 885 l 338 885 l 338 322 l 660 885 l 900 885 l 900 0 l 660 0 l 660 525 l 338 0 l 97 0 l 97 0 z "},"":{"ha":1000,"x_min":44,"x_max":957,"o":"m 44 0 l 349 885 l 650 885 l 957 0 l 715 0 l 671 160 l 329 160 l 283 0 l 44 0 l 44 0 m 381 331 l 621 331 l 531 624 q 517 667 524 644 q 507 713 511 690 q 503 728 504 721 q 500 743 501 736 q 497 728 499 736 q 493 713 494 721 q 492 708 492 710 q 490 703 492 706 q 481 663 486 682 q 471 624 476 643 l 381 331 l 381 331 z "},"":{"ha":1153,"x_min":40,"x_max":1114,"o":"m 1114 0 l 889 0 l 838 383 q 831 433 833 408 q 825 482 828 457 q 822 531 824 507 q 817 581 819 556 q 813 553 815 567 q 806 525 810 539 q 792 470 800 497 q 776 414 785 443 l 657 0 l 497 0 l 376 414 q 361 470 368 443 q 347 525 354 497 q 341 553 344 539 q 335 581 338 567 q 331 531 333 556 q 326 482 329 507 q 321 433 324 457 q 315 383 318 408 l 264 0 l 40 0 l 175 885 l 414 885 l 549 431 q 558 399 553 414 q 565 369 563 385 q 572 340 569 354 q 576 308 575 325 q 583 344 579 326 q 590 379 586 361 q 596 404 593 392 q 603 431 599 417 l 739 885 l 976 885 l 1114 0 l 1114 0 z "},"":{"ha":736,"x_min":76,"x_max":682,"o":"m 519 331 q 638 272 593 317 q 682 169 682 226 q 620 48 682 82 q 485 6 558 14 q 423 1 453 1 q 367 0 393 0 l 76 0 l 76 610 l 365 610 q 552 579 472 610 q 632 478 632 549 q 610 387 632 426 q 519 331 588 347 l 519 331 m 288 126 q 299 126 293 126 q 313 125 306 125 q 318 125 315 125 q 325 124 321 125 q 332 124 328 124 q 340 124 336 124 q 357 124 349 124 q 374 125 365 124 q 443 140 411 128 q 479 182 475 153 l 479 196 q 447 247 479 233 q 376 261 415 260 q 370 261 374 261 q 363 261 367 261 l 288 261 l 288 126 l 288 126 m 446 424 l 446 435 q 415 481 446 469 q 347 493 385 492 q 344 493 346 493 q 340 493 342 493 l 288 493 l 288 363 q 290 362 289 363 q 293 361 292 361 q 294 360 293 361 q 297 360 296 360 q 322 360 308 360 q 349 363 335 361 q 411 380 382 367 q 446 424 440 393 l 446 424 z "},"":{"ha":1208,"x_min":69,"x_max":1136,"o":"m 483 997 l 728 997 l 728 900 q 933 825 838 886 q 1085 660 1029 764 q 1113 597 1101 629 q 1129 531 1124 564 q 1135 489 1133 510 q 1136 449 1136 468 q 1021 138 1136 278 q 728 -17 906 -3 l 728 -119 l 483 -119 l 483 -18 q 186 138 303 -3 q 69 449 69 278 q 72 489 69 468 q 78 531 74 510 q 97 597 85 564 q 124 660 108 629 q 276 825 181 764 q 483 900 372 886 l 483 997 l 483 997 m 471 192 q 477 192 474 192 q 483 189 481 192 l 483 696 q 362 604 406 674 q 313 457 318 535 q 311 444 311 450 q 311 432 311 438 q 311 424 311 428 q 311 417 311 419 q 355 278 315 343 q 471 192 394 214 l 471 192 m 882 540 q 822 639 864 597 q 728 696 781 681 l 728 189 q 734 192 731 192 q 740 192 738 192 q 853 278 814 213 q 899 418 893 344 q 899 428 899 424 q 899 439 899 433 q 898 458 899 449 q 896 476 897 467 q 890 510 894 493 q 882 540 886 526 l 882 540 z "},"":{"ha":0,"x_min":0,"x_max":0,"o":""},"":{"ha":722,"x_min":110,"x_max":653,"o":"m 110 0 l 110 885 l 653 885 l 653 692 l 347 692 l 347 538 l 635 538 l 635 349 l 347 349 l 347 199 l 653 199 l 653 0 l 110 0 l 110 0 z "},"":{"ha":986,"x_min":113,"x_max":917,"o":"m 113 0 l 113 885 l 353 885 l 353 322 l 675 885 l 917 885 l 917 0 l 675 0 l 675 525 l 353 0 l 113 0 l 113 0 m 518 1076 q 578 1086 557 1076 q 607 1107 599 1096 q 612 1117 610 1113 q 614 1125 614 1121 l 750 1125 q 747 1099 750 1125 q 721 1040 743 1072 q 649 981 697 1007 q 511 954 601 954 q 374 981 422 954 q 303 1040 325 1007 q 276 1099 279 1072 q 272 1125 272 1125 l 418 1125 q 445 1091 424 1106 q 518 1076 467 1076 l 518 1076 z "},"":{"ha":849,"x_min":99,"x_max":793,"o":"m 324 692 l 324 531 l 381 531 q 431 530 404 531 q 485 528 457 529 q 551 520 518 525 q 610 507 583 515 q 741 413 689 478 q 793 253 793 347 l 793 232 q 697 61 786 107 q 500 6 607 15 q 422 1 461 1 q 349 0 383 0 l 99 0 l 99 885 l 642 885 l 642 692 l 324 692 l 324 692 m 324 374 l 324 182 q 342 182 332 182 q 363 182 351 182 q 374 181 368 181 q 385 181 379 181 q 396 181 390 181 q 407 181 401 181 q 416 181 411 181 q 426 181 421 181 q 517 198 475 182 q 563 261 558 214 l 563 279 q 521 352 563 333 q 431 374 479 371 q 420 374 425 374 q 410 374 415 374 l 324 374 l 324 374 z "},"":{"ha":971,"x_min":97,"x_max":900,"o":"m 97 0 l 97 885 l 338 885 l 338 543 l 660 543 l 660 885 l 900 885 l 900 0 l 660 0 l 660 360 l 338 360 l 338 0 l 97 0 l 97 0 z "},"":{"ha":1000,"x_min":50,"x_max":957,"o":"m 472 679 q 490 644 483 661 q 501 608 497 626 q 504 616 503 613 q 507 622 506 619 q 519 651 513 636 q 533 679 525 665 l 639 885 l 925 885 l 631 460 l 957 0 l 685 0 l 533 264 q 521 287 526 275 q 511 311 515 299 q 509 316 510 314 q 507 321 508 318 q 504 327 506 324 q 501 335 503 331 q 499 323 500 329 q 494 311 497 317 q 485 287 490 299 q 472 264 479 275 l 322 0 l 50 0 l 376 464 l 81 885 l 367 885 l 472 679 l 472 679 z "},"":{"ha":1306,"x_min":106,"x_max":1247,"o":"m 1013 0 l 106 0 l 106 885 l 347 885 l 347 199 l 515 199 l 515 885 l 757 885 l 757 199 l 925 199 l 925 885 l 1167 885 l 1167 199 l 1247 199 l 1247 -217 l 1004 -217 l 1013 0 l 1013 0 z "},"":{"ha":819,"x_min":69,"x_max":747,"o":"m 747 851 l 747 588 q 651 664 701 635 q 536 693 601 693 l 515 693 q 367 611 419 685 q 311 451 315 538 q 311 445 311 449 q 311 439 311 442 q 351 292 311 361 q 471 200 392 224 q 508 192 490 194 q 540 189 525 189 q 651 220 601 189 q 747 297 701 251 l 747 33 q 709 18 728 25 q 671 6 690 11 q 595 -10 633 -4 q 518 -17 557 -17 q 502 -17 510 -17 q 486 -17 494 -17 q 470 -16 478 -17 q 454 -14 463 -15 q 174 137 279 3 q 69 443 69 271 q 174 748 69 614 q 454 903 279 882 q 468 903 461 903 q 482 904 475 904 q 494 905 488 904 q 508 906 501 906 q 630 891 569 906 q 747 851 690 876 l 747 851 z "},"":{"ha":833,"x_min":104,"x_max":781,"o":"m 526 360 l 204 360 l 204 543 l 519 543 q 432 655 497 618 q 293 693 367 692 q 290 693 292 693 q 288 693 289 693 q 281 693 285 693 q 274 693 278 693 q 183 673 228 690 q 104 626 139 656 l 104 851 q 219 891 160 876 q 338 906 278 906 q 352 905 344 906 q 367 904 360 904 q 381 903 374 904 q 396 903 389 903 q 675 748 569 882 q 781 443 781 614 q 675 137 781 271 q 396 -14 569 3 q 378 -16 388 -15 q 358 -17 368 -17 q 344 -17 351 -17 q 331 -17 338 -17 q 216 -4 272 -17 q 104 33 160 8 l 104 250 q 165 211 131 226 q 233 189 199 196 q 258 186 246 188 q 282 185 269 185 q 288 185 285 185 q 293 185 290 185 q 437 233 369 188 q 526 360 504 278 l 526 360 z "},"":{"ha":0,"x_min":0,"x_max":0,"o":""},"":{"ha":1306,"x_min":32,"x_max":1263,"o":"m 758 0 l 536 0 l 536 399 l 288 0 l 32 0 l 333 454 l 57 885 l 294 885 l 536 483 l 536 885 l 758 885 l 758 483 l 997 885 l 1238 885 l 958 454 l 1263 0 l 1006 0 l 758 399 l 758 0 l 758 0 z "},"":{"ha":958,"x_min":99,"x_max":928,"o":"m 99 0 l 99 885 l 338 885 l 338 483 l 617 885 l 899 885 l 572 454 l 928 0 l 626 0 l 338 399 l 338 0 l 99 0 l 99 0 z "},"":{"ha":863,"x_min":99,"x_max":793,"o":"m 99 885 l 376 885 q 432 884 403 885 q 490 881 461 883 q 667 833 586 872 q 754 682 749 793 l 754 664 q 710 542 754 583 q 592 478 667 500 q 741 408 689 468 q 793 254 793 347 l 793 232 q 697 61 786 107 q 500 6 607 15 q 422 1 461 1 q 349 0 383 0 l 99 0 l 99 885 l 99 885 m 324 182 q 342 182 332 182 q 363 182 351 182 q 374 181 368 181 q 385 181 379 181 q 396 181 390 181 q 407 181 401 181 q 416 181 411 181 q 426 181 421 181 q 517 198 475 182 q 563 261 558 214 l 563 279 q 521 352 563 333 q 431 374 479 371 q 420 374 425 374 q 410 374 415 374 l 324 374 l 324 182 l 324 182 m 526 606 l 526 621 q 490 688 526 669 q 410 708 454 706 q 397 710 404 710 q 385 710 390 710 l 324 710 l 324 531 q 338 531 331 531 q 354 531 346 531 q 362 529 358 529 q 369 529 365 529 q 380 529 375 529 q 389 529 385 529 q 398 529 393 529 q 408 529 403 529 q 485 547 450 532 q 526 606 521 561 l 526 606 z "},"":{"ha":1069,"x_min":72,"x_max":1018,"o":"m 810 826 q 963 656 908 763 q 1018 435 1018 550 q 1017 406 1018 421 q 1014 378 1017 392 q 1002 320 1010 349 q 983 264 994 292 q 803 55 926 129 q 543 -19 679 -19 q 524 -19 533 -19 q 506 -18 515 -18 q 412 -1 458 -14 q 322 33 365 11 q 139 208 206 94 q 72 443 72 321 q 74 479 72 461 q 79 517 75 497 q 97 590 85 553 q 128 660 110 626 q 306 840 193 778 q 544 903 419 903 q 576 902 560 903 q 607 899 592 901 q 712 874 660 892 q 810 826 764 856 l 810 826 m 761 342 q 769 371 765 356 q 774 401 772 386 q 776 421 775 411 q 776 439 776 431 q 776 456 776 447 q 775 472 775 464 q 739 588 768 532 q 657 674 710 643 q 629 686 643 681 q 603 696 615 692 q 575 701 589 699 q 547 703 561 703 q 417 658 476 703 q 333 540 357 614 q 325 510 329 526 q 318 476 321 493 q 316 458 317 467 q 315 439 315 449 q 315 428 315 433 q 315 418 315 424 q 361 278 321 344 q 475 192 401 213 q 508 183 492 186 q 543 181 525 181 q 675 224 615 181 q 761 342 735 268 l 761 342 z "},"":{"ha":833,"x_min":69,"x_max":794,"o":"m 69 0 l 69 610 l 282 610 l 282 344 l 501 610 l 769 610 l 496 318 l 794 0 l 511 0 l 282 272 l 282 0 l 69 0 l 69 0 z "},"":{"ha":835,"x_min":69,"x_max":776,"o":"m 363 182 q 392 183 376 182 q 424 188 408 185 q 508 218 469 196 q 549 279 546 240 l 549 288 q 504 349 549 332 q 406 371 460 367 q 368 373 386 372 q 333 374 350 374 l 311 374 l 311 531 q 317 531 314 531 q 325 531 321 531 q 333 529 329 529 q 342 529 338 529 q 367 530 354 529 q 394 532 381 531 q 474 551 438 536 q 514 606 510 567 l 514 628 q 476 699 514 682 q 393 719 439 717 q 370 721 382 721 q 347 721 358 721 q 333 718 340 719 q 317 714 325 717 q 277 702 297 710 q 240 686 257 694 q 208 670 222 678 q 185 657 193 663 l 104 808 q 117 817 110 813 q 131 825 124 821 q 238 874 176 851 q 371 900 300 897 l 381 900 q 646 839 569 900 q 740 682 722 778 q 702 548 739 597 q 588 475 665 499 q 729 397 683 453 q 776 254 775 340 q 776 243 776 249 q 775 232 775 238 q 731 113 768 169 q 635 33 694 56 q 543 8 593 17 q 442 -6 493 -1 q 417 -6 429 -6 q 394 -7 406 -7 q 387 -7 390 -7 q 379 -7 383 -7 q 213 16 294 -6 q 69 79 132 38 l 157 268 q 244 208 197 231 q 363 182 290 186 l 363 182 z "},"":{"ha":971,"x_min":50,"x_max":900,"o":"m 369 167 q 251 29 321 58 q 99 0 181 0 q 87 1 93 0 q 75 1 81 1 q 62 2 68 1 q 50 3 56 3 l 50 221 q 114 233 92 224 q 154 275 136 242 q 157 281 156 278 q 160 286 158 283 q 202 499 189 354 q 217 885 215 643 l 900 885 l 900 0 l 660 0 l 660 692 l 450 692 q 423 390 443 517 q 379 194 403 263 q 374 179 376 186 q 369 167 372 172 l 369 167 z "},"":{"ha":596,"x_min":110,"x_max":653,"o":"m 110 0 l 110 885 l 653 885 l 653 692 l 347 692 l 347 0 l 110 0 l 110 0 z "},"":{"ha":971,"x_min":97,"x_max":900,"o":"m 338 692 l 338 0 l 97 0 l 97 885 l 900 885 l 900 0 l 660 0 l 660 692 l 338 692 l 338 692 z "},"":{"ha":779,"x_min":39,"x_max":736,"o":"m 113 -268 l 283 94 l 39 610 l 276 610 l 363 389 q 378 342 371 367 q 389 294 385 318 q 394 310 392 303 q 399 326 396 318 q 408 358 403 342 q 418 389 413 374 l 507 610 l 736 610 l 351 -268 l 113 -268 l 113 -268 z "},"":{"ha":0,"x_min":0,"x_max":0,"o":""},"":{"ha":0,"x_min":0,"x_max":0,"o":""},"":{"ha":0,"x_min":0,"x_max":0,"o":""},"":{"ha":0,"x_min":0,"x_max":0,"o":""},"":{"ha":0,"x_min":0,"x_max":0,"o":""},"":{"ha":682,"x_min":51,"x_max":635,"o":"m 236 453 l 51 453 l 51 610 l 635 610 l 635 453 l 449 453 l 449 0 l 236 0 l 236 453 l 236 453 z "},"":{"ha":1306,"x_min":113,"x_max":1247,"o":"m 353 543 l 442 543 q 588 797 467 694 q 851 900 708 900 q 885 899 868 900 q 921 893 903 897 q 998 869 960 886 q 1071 826 1036 853 q 1198 665 1154 765 q 1247 456 1242 564 q 1247 444 1247 450 q 1247 431 1247 438 q 1242 346 1247 388 q 1225 264 1236 304 q 1068 55 1176 129 q 840 -19 960 -19 q 743 -6 792 -19 q 649 33 694 7 q 507 173 560 85 q 436 360 454 261 l 353 360 l 353 0 l 113 0 l 113 885 l 353 885 l 353 543 l 353 543 m 668 540 q 663 510 665 526 q 657 476 660 493 q 656 458 657 467 q 656 439 656 449 q 656 428 656 433 q 656 418 656 424 q 692 278 660 344 q 786 192 724 213 q 813 183 800 186 q 840 181 826 181 q 945 224 897 181 q 1013 342 993 268 q 1023 390 1019 365 q 1026 442 1026 415 q 1026 458 1026 450 q 1025 475 1025 467 q 995 589 1019 535 q 929 674 971 643 q 908 686 919 681 q 885 696 896 692 q 862 701 874 699 q 840 703 850 703 q 737 658 785 703 q 668 540 689 614 l 668 540 z "},"":{"ha":1139,"x_min":79,"x_max":1065,"o":"m 81 435 q 81 438 81 436 q 81 443 81 440 q 79 447 79 444 q 79 450 79 449 q 191 726 79 621 q 438 865 303 831 q 503 878 471 874 q 565 882 535 882 l 581 882 q 920 749 775 882 q 1065 435 1065 615 q 917 131 1065 264 q 569 -3 768 -3 q 232 121 376 -3 q 81 435 88 244 l 81 435 m 569 69 q 856 177 739 69 q 972 435 972 285 q 849 699 972 599 q 565 799 726 799 q 294 693 406 799 q 182 435 182 588 q 260 223 188 304 q 419 104 333 142 q 499 78 460 86 q 569 69 538 69 l 569 69 m 813 363 q 748 238 813 286 q 590 189 683 189 q 403 256 471 189 q 321 401 335 322 q 320 409 321 406 q 319 417 319 413 q 319 419 319 418 q 319 424 319 421 q 318 427 318 425 q 318 431 318 429 q 376 600 318 538 q 506 686 435 663 q 549 697 528 693 q 590 700 571 700 q 744 651 675 700 q 813 525 813 601 l 714 525 q 670 593 708 568 q 588 619 632 618 q 585 619 586 619 q 583 619 585 619 q 569 619 576 619 q 556 617 563 618 q 471 567 510 607 q 432 457 432 528 q 433 451 432 454 q 433 446 433 449 q 434 440 433 443 q 435 435 435 438 q 478 314 438 356 q 568 264 519 272 q 581 262 574 263 q 594 261 588 261 q 677 289 640 261 q 714 363 714 317 l 813 363 l 813 363 z "},"":{"ha":0,"x_min":0,"x_max":0,"o":""},"":{"ha":0,"x_min":0,"x_max":0,"o":""},"":{"ha":0,"x_min":0,"x_max":0,"o":""},"":{"ha":0,"x_min":0,"x_max":0,"o":""},"":{"ha":889,"x_min":101,"x_max":946,"o":"m 519 511 l 540 599 l 660 885 l 946 885 l 508 0 l 236 0 l 381 272 l 101 885 l 388 885 l 497 599 l 519 511 l 519 511 z "},"":{"ha":682,"x_min":104,"x_max":740,"o":"m 301 0 l 301 675 l 104 675 l 104 885 l 740 885 l 740 675 l 543 675 l 543 0 l 301 0 l 301 0 z "},"":{"ha":0,"x_min":0,"x_max":0,"o":""},"":{"ha":0,"x_min":0,"x_max":0,"o":""},"":{"ha":0,"x_min":0,"x_max":0,"o":""},"":{"ha":1110,"x_min":69,"x_max":1069,"o":"m 1019 169 l 1069 169 l 1069 -174 l 860 -174 l 889 0 l 69 0 l 69 610 l 282 610 l 282 169 l 439 169 l 439 610 l 650 610 l 650 169 l 808 169 l 808 610 l 1019 610 l 1019 169 l 1019 169 z "},"":{"ha":889,"x_min":44,"x_max":826,"o":"m 44 610 l 442 610 l 442 376 l 522 376 q 553 376 538 376 q 586 375 569 376 q 641 370 614 374 q 689 360 668 367 q 784 299 750 344 q 825 201 818 253 q 826 190 825 196 q 826 178 826 183 q 797 81 826 126 q 707 15 768 35 q 677 8 692 11 q 649 4 663 6 q 591 1 621 1 q 519 0 561 0 l 229 0 l 229 453 l 44 453 l 44 610 l 44 610 m 442 126 q 453 126 446 126 q 467 125 460 125 q 472 125 469 125 q 476 125 474 125 q 487 124 482 124 q 496 124 492 124 q 511 124 503 124 q 526 125 519 124 q 597 140 564 128 q 632 182 629 151 l 632 199 q 598 249 632 238 q 522 261 564 261 q 519 261 521 261 q 515 261 517 261 l 442 261 l 442 126 l 442 126 z "},"":{"ha":917,"x_min":104,"x_max":833,"o":"m 104 572 l 104 885 l 344 885 l 344 576 q 383 506 350 529 q 460 482 417 482 q 478 483 469 482 q 497 486 488 485 q 551 508 525 493 q 592 543 576 524 l 592 885 l 833 885 l 833 0 l 592 0 l 592 360 q 490 326 540 338 q 394 315 439 315 q 271 336 326 315 q 178 388 215 357 q 122 459 140 413 q 104 572 104 506 l 104 572 z "},"":{"ha":1069,"x_min":117,"x_max":1015,"o":"m 360 200 l 679 200 l 679 885 l 921 885 l 921 199 l 1015 199 l 1015 -217 l 769 -217 l 781 0 l 117 0 l 117 885 l 358 885 l 360 200 l 360 200 z "},"":{"ha":0,"x_min":0,"x_max":0,"o":""},"":{"ha":0,"x_min":0,"x_max":0,"o":""},"":{"ha":0,"x_min":0,"x_max":0,"o":""},"":{"ha":1015,"x_min":72,"x_max":939,"o":"m 529 360 q 637 294 599 343 q 675 188 675 244 q 674 169 675 178 q 669 150 672 160 q 625 68 658 107 q 549 15 592 29 q 519 8 533 11 q 490 4 504 6 q 433 1 463 1 q 363 0 404 0 l 72 0 l 72 610 l 282 610 l 282 376 l 365 376 q 397 376 381 376 q 429 375 413 375 q 483 370 457 374 q 529 360 510 367 l 529 360 m 475 182 l 475 196 q 443 247 475 233 q 372 261 411 260 q 366 261 369 261 q 358 261 363 261 l 283 261 l 283 126 q 295 126 289 126 q 308 125 301 125 q 311 125 310 125 q 315 125 313 125 q 325 124 319 124 q 335 124 331 124 q 351 124 343 124 q 367 125 358 124 q 438 140 406 128 q 475 182 471 151 l 475 182 m 939 0 l 728 0 l 728 610 l 939 610 l 939 0 l 939 0 z "},"":{"ha":610,"x_min":74,"x_max":547,"o":"m 229 460 q 220 460 225 460 q 211 461 215 461 q 194 463 203 463 q 178 464 186 464 q 169 464 174 464 q 161 463 165 464 q 119 455 140 461 q 74 439 99 449 l 74 592 q 101 604 88 599 q 126 614 114 610 q 180 628 153 624 q 232 632 207 632 q 452 542 357 632 q 547 306 547 451 l 547 301 q 455 69 547 154 q 239 -17 363 -17 q 190 -13 215 -17 q 140 -3 165 -10 q 107 6 124 0 q 74 21 90 13 l 74 192 q 117 172 93 181 q 164 161 140 164 q 177 160 171 161 q 189 160 183 160 q 192 160 190 160 q 194 160 193 160 q 278 185 239 161 q 329 261 317 208 l 99 261 l 99 385 l 319 385 q 285 432 308 413 q 229 460 261 451 l 229 460 z "},"":{"ha":750,"x_min":40,"x_max":675,"o":"m 464 261 l 283 0 l 40 0 l 254 246 q 120 307 164 263 q 76 425 76 351 q 151 557 81 519 q 304 604 221 594 q 376 609 340 608 q 442 610 411 610 l 675 610 l 675 0 l 464 0 l 464 261 l 464 261 m 290 399 q 338 331 292 344 q 439 318 383 318 q 444 318 442 318 q 450 318 447 318 q 453 318 451 318 q 457 319 456 318 q 461 319 460 319 q 464 319 463 319 l 464 479 q 461 479 463 479 q 457 479 460 479 q 453 478 456 478 q 450 478 451 478 q 433 478 442 478 q 417 478 425 478 q 328 463 368 476 q 288 403 288 449 l 290 399 l 290 399 z "},"":{"ha":0,"x_min":0,"x_max":0,"o":""},"":{"ha":806,"x_min":58,"x_max":743,"o":"m 65 269 q 65 281 65 275 q 63 293 64 288 q 60 330 61 311 q 58 367 58 349 q 60 423 58 394 q 64 481 61 451 q 99 657 74 574 q 164 775 124 740 q 301 858 239 840 q 411 885 364 875 q 465 899 442 890 q 501 928 488 907 l 674 928 q 604 773 671 808 q 458 719 538 738 q 456 719 457 719 q 453 718 454 718 q 392 703 422 711 q 335 682 361 694 q 301 655 317 674 q 278 615 285 636 q 274 606 275 611 q 272 594 272 600 q 319 608 294 601 q 368 617 343 614 q 396 619 382 618 q 424 621 410 621 q 440 621 432 621 q 456 619 447 621 q 527 606 492 617 q 592 576 563 596 q 695 471 656 538 q 742 332 735 404 q 742 316 742 324 q 743 301 743 308 q 742 281 743 292 q 740 261 742 271 q 732 220 738 240 q 718 181 726 200 q 595 38 679 90 q 418 -19 511 -14 q 408 -19 413 -19 q 399 -19 403 -19 q 370 -18 385 -19 q 342 -14 356 -17 q 290 -3 315 -10 q 243 15 265 4 q 128 115 172 51 q 69 247 85 178 q 67 258 68 253 q 65 269 67 264 l 65 269 m 403 185 q 494 226 464 185 q 525 315 525 267 q 525 319 525 317 q 525 324 525 321 q 492 409 522 369 q 403 449 461 449 q 313 409 343 449 q 279 324 282 369 q 279 319 279 321 q 279 315 279 317 q 311 226 279 267 q 403 185 343 185 l 403 185 z "},"":{"ha":790,"x_min":69,"x_max":721,"o":"m 508 365 l 282 0 l 69 0 l 69 610 l 282 610 l 282 272 l 508 610 l 721 610 l 721 0 l 508 0 l 508 365 l 508 365 m 394 750 q 441 756 426 750 q 460 769 456 763 q 463 775 463 772 q 464 781 464 778 l 464 794 l 565 794 l 565 786 q 561 758 565 776 q 546 719 557 740 q 492 669 529 692 q 388 646 456 646 q 285 669 321 646 q 232 722 249 693 q 213 775 215 751 q 210 799 210 799 l 319 799 l 319 797 q 319 796 319 797 q 319 793 319 794 q 318 792 318 793 q 318 792 318 792 q 318 790 318 790 q 318 788 318 789 q 319 781 318 785 q 324 772 321 776 q 346 757 329 764 q 394 750 363 750 l 394 750 z "},"":{"ha":819,"x_min":79,"x_max":763,"o":"m 79 -268 l 79 610 l 276 610 l 276 508 q 373 598 317 565 q 493 631 429 631 q 522 628 507 631 q 553 624 538 626 q 572 618 563 621 q 590 613 582 615 q 720 492 678 578 q 763 313 763 407 q 763 305 763 308 q 763 297 763 301 q 688 79 758 178 q 489 -19 617 -19 l 482 -21 q 363 10 408 -19 q 279 99 317 40 q 281 72 281 85 q 283 46 282 58 q 283 20 283 33 q 283 -6 283 7 l 283 -268 l 79 -268 l 79 -268 m 410 153 q 508 201 465 153 q 551 308 551 249 q 513 415 551 368 q 410 461 475 461 q 307 413 342 461 q 272 308 272 365 q 272 305 272 307 q 272 300 272 303 q 310 199 275 246 q 410 153 344 153 l 410 153 z "},"":{"ha":610,"x_min":51,"x_max":526,"o":"m 526 410 q 469 447 500 432 q 403 461 438 461 q 394 461 399 461 q 385 461 390 461 q 377 460 381 461 q 371 460 374 460 q 292 403 318 447 q 265 308 265 360 q 306 192 265 232 q 400 151 347 151 q 423 153 411 151 q 446 158 435 156 q 488 177 468 165 q 526 207 508 189 l 526 21 q 485 4 506 11 q 443 -8 464 -3 q 401 -15 422 -12 q 360 -17 381 -17 q 144 69 238 -17 q 51 301 51 154 l 54 306 q 148 542 54 451 q 367 632 242 632 q 406 630 386 632 q 447 622 426 628 q 487 610 467 617 q 526 592 507 603 l 526 410 l 526 410 z "},"":{"ha":0,"x_min":0,"x_max":0,"o":""},"":{"ha":806,"x_min":33,"x_max":757,"o":"m 360 507 q 363 501 361 504 q 365 494 364 497 q 371 483 368 489 q 376 471 374 476 q 384 453 381 463 q 389 435 388 444 q 413 495 399 467 q 444 553 428 524 q 449 559 447 556 q 453 567 451 563 q 466 588 460 578 q 478 610 472 599 l 721 610 l 511 326 l 757 0 l 514 0 l 421 156 q 404 189 411 171 q 392 228 397 207 q 380 189 386 207 q 363 156 374 171 l 272 0 l 33 0 l 272 326 l 68 610 l 304 610 l 360 507 l 360 507 z "},"":{"ha":0,"x_min":0,"x_max":0,"o":""},"":{"ha":0,"x_min":0,"x_max":0,"o":""},"":{"ha":0,"x_min":0,"x_max":0,"o":""},"":{"ha":0,"x_min":0,"x_max":0,"o":""},"":{"ha":806,"x_min":69,"x_max":721,"o":"m 282 0 l 69 0 l 69 610 l 721 610 l 721 0 l 508 0 l 508 453 l 282 453 l 282 0 l 282 0 z "},"":{"ha":779,"x_min":50,"x_max":729,"o":"m 704 181 q 581 38 665 90 q 404 -19 497 -14 q 394 -19 399 -19 q 385 -19 389 -19 q 356 -18 371 -19 q 328 -14 342 -17 q 276 -3 301 -10 q 229 15 251 4 q 99 138 147 58 q 50 306 50 218 q 51 338 50 321 q 57 371 53 354 q 69 416 61 393 q 90 460 78 439 q 218 586 136 542 q 389 631 300 631 q 419 629 404 631 q 449 625 433 628 q 517 608 483 619 q 579 576 550 596 q 682 471 643 538 q 728 332 721 404 q 728 316 728 324 q 729 301 729 308 q 728 281 729 292 q 726 261 728 271 q 718 220 724 240 q 704 181 713 200 l 704 181 m 389 449 q 298 408 332 449 q 264 318 264 368 q 302 225 264 265 q 389 185 340 185 q 481 226 450 185 q 511 315 511 267 q 511 319 511 317 q 511 324 511 321 q 478 409 508 369 q 389 449 449 449 l 389 449 z "},"":{"ha":0,"x_min":0,"x_max":0,"o":""},"":{"ha":0,"x_min":0,"x_max":0,"o":""},"":{"ha":679,"x_min":44,"x_max":631,"o":"m 44 410 l 243 696 l 369 639 l 210 410 l 369 171 l 243 124 l 44 410 l 44 410 m 501 696 l 631 639 l 465 410 l 631 171 l 501 124 l 301 410 l 501 696 l 501 696 z "},"":{"ha":0,"x_min":0,"x_max":0,"o":""},"":{"ha":0,"x_min":0,"x_max":0,"o":""},"":{"ha":0,"x_min":0,"x_max":0,"o":""},"":{"ha":943,"x_min":51,"x_max":878,"o":"m 360 936 l 572 936 l 572 631 q 729 586 654 631 q 846 460 804 542 q 863 417 857 439 q 874 371 869 394 q 876 341 875 356 q 878 311 878 326 q 793 82 878 185 q 572 -21 708 -21 l 572 -268 l 360 -268 l 360 -22 q 138 82 224 -21 q 51 311 51 185 q 53 341 51 326 q 57 371 54 356 q 68 417 61 394 q 86 460 75 439 q 203 586 128 542 q 360 631 278 631 l 360 936 l 360 936 m 360 446 q 272 405 301 446 q 243 315 243 364 q 251 267 243 290 q 272 225 258 244 q 310 196 288 207 q 360 185 332 185 l 360 446 l 360 446 m 685 315 q 657 405 685 364 q 572 446 629 446 l 572 185 q 656 226 628 185 q 685 315 685 267 l 685 315 z "},"":{"ha":0,"x_min":0,"x_max":0,"o":""},"":{"ha":0,"x_min":0,"x_max":0,"o":""},"":{"ha":486,"x_min":76,"x_max":406,"o":"m 76 790 q 127 885 76 854 q 239 917 178 917 q 247 917 243 917 q 254 917 250 917 q 358 881 311 913 q 406 790 406 850 l 406 779 q 358 683 406 717 q 254 646 311 649 q 249 646 251 646 q 243 646 246 646 q 128 683 181 646 q 76 790 76 719 l 76 790 m 308 790 q 289 826 308 814 q 246 840 269 839 q 242 840 244 840 q 239 840 240 840 q 192 828 213 840 q 171 790 171 815 q 192 747 171 761 q 239 733 213 733 q 242 733 240 733 q 246 733 244 733 q 289 750 269 736 q 308 790 308 764 l 308 790 z "},"":{"ha":0,"x_min":0,"x_max":0,"o":""},"":{"ha":0,"x_min":0,"x_max":0,"o":""},"":{"ha":806,"x_min":47,"x_max":732,"o":"m 732 610 l 732 3 l 533 3 l 533 99 q 439 10 490 40 q 319 -19 388 -19 q 295 -19 308 -19 q 268 -17 282 -19 q 112 80 164 -1 q 50 257 60 161 q 48 281 49 269 q 47 304 47 293 q 47 313 47 308 q 49 324 47 318 q 50 342 49 332 q 51 361 51 351 q 53 369 53 365 q 54 378 54 374 q 142 560 69 489 q 329 631 215 631 q 448 599 400 631 q 533 511 496 568 l 533 610 l 732 610 l 732 610 m 543 313 q 543 316 543 314 q 543 321 543 318 q 503 416 540 372 q 400 460 467 460 q 300 416 336 460 q 261 321 264 372 q 261 316 261 318 q 261 313 261 314 q 261 310 261 311 q 261 308 261 310 q 299 211 263 256 q 400 167 335 167 q 502 211 461 167 q 543 313 543 256 l 543 313 z "},"":{"ha":0,"x_min":0,"x_max":0,"o":""},"":{"ha":0,"x_min":0,"x_max":0,"o":""},"":{"ha":779,"x_min":54,"x_max":722,"o":"m 722 264 l 258 264 q 293 160 263 201 q 392 117 324 119 q 394 117 393 117 q 396 117 394 117 q 397 115 396 115 q 399 115 397 115 q 474 133 440 115 q 531 189 508 151 l 693 124 q 580 13 657 49 q 417 -24 503 -22 q 413 -24 415 -24 q 410 -24 411 -24 q 405 -24 407 -24 q 400 -24 403 -24 q 249 7 322 -22 q 131 90 175 36 q 77 178 97 129 q 54 279 57 228 q 54 287 54 283 q 54 294 54 290 q 55 304 54 299 q 57 315 56 310 q 58 325 57 319 q 58 335 58 331 q 172 551 74 472 q 396 631 271 631 q 448 627 422 631 q 500 617 474 624 q 675 481 631 579 q 722 264 719 383 l 722 264 m 511 385 q 473 466 504 433 q 389 500 442 499 q 305 468 333 500 q 265 385 276 436 l 511 385 l 511 385 z "},"":{"ha":0,"x_min":0,"x_max":0,"o":""},"":{"ha":765,"x_min":61,"x_max":710,"o":"m 181 551 q 112 617 136 579 q 83 694 88 656 q 83 701 83 697 q 83 707 83 704 q 83 709 83 708 q 83 711 83 710 q 158 858 85 792 q 356 925 232 925 q 599 856 525 925 q 674 668 674 788 l 464 668 q 464 673 464 671 q 465 676 464 675 q 465 690 465 683 q 465 700 465 696 q 439 764 465 743 q 381 788 413 785 q 377 788 379 788 q 374 788 375 788 q 372 788 372 788 q 369 788 371 788 q 313 769 339 786 q 286 725 286 753 q 337 639 286 671 q 454 579 388 607 q 476 570 465 575 q 499 561 488 565 q 637 489 574 531 q 710 371 700 447 l 710 349 q 666 234 710 281 q 556 163 622 188 q 641 96 608 143 q 678 -1 674 49 q 678 -8 678 -6 q 678 -14 678 -11 q 677 -26 678 -19 q 676 -39 676 -32 q 599 -158 667 -104 q 392 -212 531 -212 l 378 -214 q 163 -157 224 -212 q 92 -35 103 -101 q 88 -11 89 -22 q 88 11 88 0 l 297 11 q 297 8 297 10 q 296 6 296 7 q 295 3 296 4 q 294 0 294 1 q 322 -63 294 -42 q 381 -86 349 -85 q 383 -86 382 -86 q 385 -86 383 -86 q 393 -86 389 -86 q 401 -85 397 -86 q 451 -62 428 -81 q 475 -14 474 -44 l 475 -8 q 433 64 475 32 q 333 126 392 96 q 301 142 318 133 q 268 158 285 150 q 130 242 193 196 q 63 353 67 288 q 63 358 63 356 q 63 363 63 361 q 61 367 61 365 q 61 371 61 369 q 91 466 61 424 q 157 535 121 508 q 169 543 163 539 q 181 551 175 547 l 181 551 m 322 478 q 272 439 290 463 q 253 389 253 415 q 256 372 253 381 q 264 353 260 363 q 274 333 267 343 q 292 311 281 322 q 347 271 313 290 q 428 239 382 251 q 455 255 443 247 q 475 269 467 263 q 503 301 494 285 q 511 331 511 317 q 453 411 511 374 q 322 478 396 449 l 322 478 z "},"":{"ha":1179,"x_min":32,"x_max":1142,"o":"m 686 0 l 489 0 l 489 272 l 283 0 l 32 0 l 297 318 l 54 610 l 290 610 l 489 344 l 489 610 l 686 610 l 686 344 l 882 610 l 1119 610 l 875 318 l 1142 0 l 889 0 l 686 272 l 686 0 l 686 0 z "},"":{"ha":610,"x_min":51,"x_max":563,"o":"m 240 131 q 251 131 246 131 q 263 131 257 131 q 338 144 303 133 q 378 182 374 156 l 378 192 q 339 244 378 224 q 188 264 300 264 l 188 374 q 217 374 201 374 q 250 378 233 375 q 313 392 283 381 q 347 424 342 403 l 347 432 q 321 472 347 457 q 239 486 294 486 q 198 478 219 483 q 156 461 176 472 q 144 456 150 458 q 133 450 139 453 l 83 569 q 133 594 103 583 q 193 611 163 604 q 235 618 214 615 q 272 621 256 621 q 462 579 389 619 q 538 472 535 539 q 513 385 538 422 q 421 331 489 347 q 528 276 494 317 q 563 178 563 235 q 478 37 553 76 q 318 -11 404 -3 q 291 -12 304 -11 q 265 -12 278 -12 q 139 4 182 -6 q 61 38 96 14 q 57 41 60 39 q 51 44 54 43 l 122 181 q 142 167 133 174 q 160 156 150 161 q 190 143 174 149 q 229 133 206 138 q 235 131 232 132 q 240 131 238 131 l 240 131 z "},"":{"ha":860,"x_min":43,"x_max":743,"o":"m 743 885 l 743 0 l 518 0 l 518 347 l 315 0 l 43 0 l 283 358 q 134 444 185 382 q 83 613 83 507 q 84 614 83 613 q 85 617 85 615 q 85 619 85 618 q 86 621 86 621 q 113 735 88 681 q 185 826 138 789 q 277 870 226 858 q 379 883 328 882 q 401 885 390 885 q 424 885 413 885 l 743 885 l 743 885 m 518 468 l 518 700 q 515 700 517 700 q 513 699 514 700 q 513 699 513 699 q 513 699 513 699 q 508 698 510 699 q 507 697 507 697 q 490 697 499 697 q 472 697 481 697 q 367 677 415 696 q 319 588 319 658 q 320 585 319 586 q 321 585 321 585 q 322 583 321 583 q 322 581 322 582 q 374 484 324 503 q 485 465 425 465 q 487 465 486 465 q 489 465 488 465 q 495 466 492 465 q 503 467 499 467 q 506 467 504 467 q 508 467 507 467 q 513 468 511 468 q 518 468 515 468 l 518 468 z "},"":{"ha":806,"x_min":69,"x_max":721,"o":"m 508 365 l 282 0 l 69 0 l 69 610 l 282 610 l 282 272 l 508 610 l 721 610 l 721 0 l 508 0 l 508 365 l 508 365 z "},"":{"ha":790,"x_min":69,"x_max":721,"o":"m 282 385 l 508 385 l 508 610 l 721 610 l 721 0 l 508 0 l 508 261 l 282 261 l 282 0 l 69 0 l 69 610 l 282 610 l 282 385 l 282 385 z "},"":{"ha":1139,"x_min":83,"x_max":1063,"o":"m 86 435 q 85 438 86 436 q 85 442 85 439 q 84 445 85 443 q 83 449 83 447 q 194 723 83 618 q 436 863 304 828 q 503 876 469 872 q 567 881 536 881 l 583 881 q 918 748 774 881 q 1063 436 1063 615 l 1063 435 q 913 130 1063 263 q 569 -3 764 -3 q 235 121 376 -3 q 86 435 93 244 l 86 435 m 567 797 q 298 691 408 797 q 185 435 188 585 q 263 223 190 304 q 421 103 335 142 q 499 76 461 85 q 569 68 538 68 q 854 176 738 68 q 971 435 971 283 l 971 436 q 849 698 971 599 q 567 797 728 797 l 567 797 m 376 188 l 378 682 l 661 682 q 803 642 761 682 q 844 533 844 603 q 807 436 843 465 q 703 396 771 407 l 831 188 l 703 188 l 581 396 l 486 396 l 486 188 l 376 188 l 376 188 m 486 468 l 660 468 q 720 489 700 468 q 740 536 740 510 q 740 542 740 539 q 739 549 740 546 q 715 590 735 571 q 661 608 694 608 l 489 608 l 486 468 l 486 468 z "},"":{"ha":0,"x_min":0,"x_max":0,"o":""},"":{"ha":0,"x_min":0,"x_max":0,"o":""},"":{"ha":0,"x_min":0,"x_max":0,"o":""},"":{"ha":0,"x_min":0,"x_max":0,"o":""},"":{"ha":0,"x_min":0,"x_max":0,"o":""},"":{"ha":0,"x_min":0,"x_max":0,"o":""},"":{"ha":0,"x_min":0,"x_max":0,"o":""},"":{"ha":0,"x_min":0,"x_max":0,"o":""},"":{"ha":0,"x_min":0,"x_max":0,"o":""},"":{"ha":0,"x_min":0,"x_max":0,"o":""},"":{"ha":0,"x_min":0,"x_max":0,"o":""},"":{"ha":0,"x_min":0,"x_max":0,"o":""},"":{"ha":0,"x_min":0,"x_max":0,"o":""},"":{"ha":0,"x_min":0,"x_max":0,"o":""},"":{"ha":790,"x_min":43,"x_max":721,"o":"m 508 453 l 371 453 q 340 214 363 289 q 293 94 318 139 q 289 85 292 90 q 283 76 286 81 q 217 22 261 43 q 79 0 172 0 l 43 0 l 43 181 q 44 180 43 181 q 47 179 46 179 q 50 178 49 179 q 51 178 51 178 q 91 190 72 178 q 122 217 110 201 q 128 231 125 224 q 133 246 131 238 q 162 357 149 286 q 175 563 175 428 l 175 610 l 721 610 l 721 0 l 508 0 l 508 453 l 508 453 z "},"":{"ha":1085,"x_min":43,"x_max":1051,"o":"m 490 0 l 363 367 l 257 0 l 43 0 l 264 610 l 414 610 l 544 268 l 678 610 l 828 610 l 1051 0 l 833 0 l 729 367 l 603 0 l 490 0 l 490 0 z "},"":{"ha":0,"x_min":0,"x_max":0,"o":""},"":{"ha":0,"x_min":0,"x_max":0,"o":""},"":{"ha":0,"x_min":0,"x_max":0,"o":""},"":{"ha":0,"x_min":0,"x_max":0,"o":""},"":{"ha":0,"x_min":0,"x_max":0,"o":""},"":{"ha":0,"x_min":0,"x_max":0,"o":""},"":{"ha":0,"x_min":0,"x_max":0,"o":""},"":{"ha":0,"x_min":0,"x_max":0,"o":""},"":{"ha":0,"x_min":0,"x_max":0,"o":""},"":{"ha":529,"x_min":69,"x_max":468,"o":"m 282 0 l 69 0 l 69 610 l 468 610 l 468 453 l 282 453 l 282 0 l 282 0 z "},"":{"ha":849,"x_min":44,"x_max":788,"o":"m 44 -174 l 44 167 l 83 167 q 113 192 99 175 q 139 232 126 208 q 171 335 157 272 q 185 547 185 397 l 185 610 l 729 610 l 729 167 l 788 167 l 788 -174 l 579 -174 l 608 0 l 228 0 l 257 -174 l 44 -174 l 44 -174 m 518 169 l 518 453 l 381 453 q 381 448 381 450 q 381 443 381 446 q 378 389 379 419 q 372 326 376 358 q 351 236 367 279 q 306 169 336 193 l 518 169 l 518 169 z "},"":{"ha":819,"x_min":72,"x_max":772,"o":"m 511 610 l 722 610 l 722 167 l 772 167 l 772 -174 l 563 -174 l 592 0 l 72 0 l 72 610 l 283 610 l 283 169 l 511 169 l 511 610 l 511 610 z "},"":{"ha":722,"x_min":69,"x_max":664,"o":"m 454 385 l 454 610 l 664 610 l 664 0 l 454 0 l 454 261 q 395 229 429 243 q 325 208 361 215 q 300 206 313 207 q 275 204 288 204 q 133 246 197 204 q 69 376 69 288 l 69 610 l 282 610 l 282 385 q 301 344 282 358 q 344 331 319 331 q 358 331 351 331 q 372 333 365 332 q 424 353 400 339 q 454 385 447 368 l 454 385 z "},"":{"ha":1096,"x_min":69,"x_max":1019,"o":"m 650 169 l 808 169 l 808 610 l 1019 610 l 1019 0 l 69 0 l 69 610 l 282 610 l 282 169 l 439 169 l 439 610 l 650 610 l 650 169 l 650 169 z "},"":{"ha":722,"x_min":76,"x_max":679,"o":"m 286 610 l 286 376 l 369 376 q 399 376 383 376 q 429 375 414 376 q 485 370 457 374 q 533 360 513 367 q 641 294 603 343 q 679 188 679 244 q 678 169 679 178 q 674 150 676 160 q 630 68 663 107 q 554 15 597 29 q 522 8 538 11 q 492 4 507 6 q 436 1 465 1 q 367 0 407 0 l 76 0 l 76 610 l 286 610 l 286 610 m 288 126 q 299 126 293 126 q 313 125 306 125 q 318 125 315 125 q 325 124 321 125 q 332 124 328 124 q 340 124 336 124 q 357 124 349 124 q 374 125 365 124 q 443 140 411 128 q 479 182 475 153 l 479 196 q 447 247 479 233 q 376 261 415 260 q 370 261 374 261 q 363 261 367 261 l 288 261 l 288 126 l 288 126 z "},"":{"ha":986,"x_min":79,"x_max":929,"o":"m 378 460 q 489 586 418 542 q 638 631 560 631 q 663 629 650 631 q 689 625 675 628 q 746 608 718 619 q 799 576 774 596 q 890 467 857 536 q 928 324 924 399 q 929 312 929 318 q 929 300 929 306 q 925 239 929 269 q 910 181 921 208 q 800 35 876 88 q 639 -19 724 -17 q 635 -19 638 -19 q 632 -19 633 -19 q 605 -18 618 -19 q 578 -14 592 -17 q 537 -3 557 -10 q 497 15 517 4 q 396 119 435 53 q 347 261 357 185 l 290 261 l 290 0 l 79 0 l 79 610 l 290 610 l 290 385 l 351 385 q 363 423 357 404 q 378 460 369 442 l 378 460 m 538 315 q 563 226 538 267 q 639 185 589 185 q 712 226 688 185 q 736 315 736 267 q 736 319 736 317 q 736 324 736 321 q 710 409 735 369 q 639 449 686 449 q 565 409 590 449 q 538 324 540 369 q 538 319 538 321 q 538 315 538 317 l 538 315 z "},"":{"ha":0,"x_min":0,"x_max":0,"o":""}}}
